<svg width="157" height="30" viewBox="0 0 157 30" fill="none" xmlns="http://www.w3.org/2000/svg">
<path d="M40.9919 9.632H51.1359V11.2L42.6559 18.976L42.4479 18.432H51.1359V20H40.9919V18.432L49.4879 10.656L49.6799 11.2H40.9919V9.632Z" fill="white"/>
<path d="M59.7729 17.376H61.4849C61.3996 17.92 61.1863 18.4053 60.8449 18.832C60.5143 19.248 60.0609 19.5787 59.4849 19.824C58.9089 20.0587 58.2209 20.176 57.4209 20.176C56.5143 20.176 55.7036 20.0107 54.9889 19.68C54.2743 19.3387 53.7143 18.8587 53.3089 18.24C52.9036 17.6213 52.7009 16.8853 52.7009 16.032C52.7009 15.1893 52.8983 14.4533 53.2929 13.824C53.6876 13.1947 54.2316 12.7093 54.9249 12.368C55.6289 12.0267 56.4396 11.856 57.3569 11.856C58.3063 11.856 59.0956 12.0267 59.7249 12.368C60.3649 12.6987 60.8396 13.2 61.1489 13.872C61.4583 14.5333 61.5863 15.3707 61.5329 16.384H54.5089C54.5623 16.832 54.7063 17.2373 54.9409 17.6C55.1863 17.952 55.5169 18.2293 55.9329 18.432C56.3489 18.624 56.8343 18.72 57.3889 18.72C58.0076 18.72 58.5249 18.5973 58.9409 18.352C59.3676 18.1067 59.6449 17.7813 59.7729 17.376ZM57.3089 13.296C56.5836 13.296 55.9863 13.4773 55.5169 13.84C55.0476 14.192 54.7436 14.6453 54.6049 15.2H59.7409C59.6983 14.6027 59.4583 14.1387 59.0209 13.808C58.5836 13.4667 58.0129 13.296 57.3089 13.296Z" fill="white"/>
<path d="M63.1169 12.032H64.8929V20H63.1169V12.032ZM68.2529 11.856C68.7116 11.856 69.1329 11.92 69.5169 12.048C69.9116 12.176 70.2476 12.3733 70.5249 12.64C70.8129 12.896 71.0316 13.216 71.1809 13.6C71.3409 13.984 71.4209 14.4373 71.4209 14.96V20H69.6449V15.312C69.6449 14.6613 69.4849 14.1813 69.1649 13.872C68.8556 13.552 68.3649 13.392 67.6929 13.392C67.1809 13.392 66.7116 13.504 66.2849 13.728C65.8689 13.9413 65.5276 14.224 65.2609 14.576C64.9943 14.9173 64.8396 15.296 64.7969 15.712L64.7809 14.848C64.8343 14.4533 64.9516 14.08 65.1329 13.728C65.3143 13.3653 65.5543 13.0453 65.8529 12.768C66.1516 12.48 66.5036 12.256 66.9089 12.096C67.3143 11.936 67.7623 11.856 68.2529 11.856Z" fill="white"/>
<path d="M72.9506 16.56H74.7266C74.7692 16.9547 74.9239 17.312 75.1906 17.632C75.4679 17.9413 75.8306 18.1867 76.2786 18.368C76.7372 18.5387 77.2599 18.624 77.8466 18.624C78.3692 18.624 78.8012 18.56 79.1426 18.432C79.4839 18.304 79.7346 18.128 79.8946 17.904C80.0652 17.6693 80.1506 17.3973 80.1506 17.088C80.1506 16.7787 80.0492 16.5387 79.8466 16.368C79.6546 16.1867 79.3559 16.0373 78.9506 15.92C78.5452 15.792 78.0279 15.6693 77.3986 15.552C76.8759 15.456 76.3692 15.328 75.8786 15.168C75.3879 15.008 74.9452 14.8053 74.5506 14.56C74.1666 14.3147 73.8626 14.016 73.6386 13.664C73.4146 13.3013 73.3026 12.8747 73.3026 12.384C73.3026 11.8293 73.4572 11.328 73.7666 10.88C74.0866 10.432 74.5559 10.08 75.1746 9.824C75.7932 9.568 76.5452 9.44 77.4306 9.44C78.7852 9.44 79.8199 9.75467 80.5346 10.384C81.2492 11.0027 81.5959 11.8453 81.5746 12.912H79.8306C79.7986 12.24 79.5532 11.7547 79.0946 11.456C78.6359 11.1573 78.0546 11.008 77.3506 11.008C76.7212 11.008 76.1932 11.12 75.7666 11.344C75.3399 11.568 75.1266 11.9307 75.1266 12.432C75.1266 12.6453 75.1746 12.832 75.2706 12.992C75.3772 13.1413 75.5479 13.28 75.7826 13.408C76.0172 13.5253 76.3372 13.6427 76.7426 13.76C77.1586 13.8667 77.6652 13.984 78.2626 14.112C78.7746 14.1973 79.2546 14.3147 79.7026 14.464C80.1506 14.6133 80.5399 14.8 80.8706 15.024C81.2119 15.248 81.4786 15.536 81.6706 15.888C81.8626 16.24 81.9586 16.672 81.9586 17.184C81.9586 17.7707 81.8092 18.2933 81.5106 18.752C81.2119 19.2 80.7532 19.5573 80.1346 19.824C79.5266 20.08 78.7372 20.208 77.7666 20.208C77.0306 20.208 76.3852 20.1227 75.8306 19.952C75.2866 19.7707 74.8226 19.5413 74.4386 19.264C74.0546 18.976 73.7452 18.6667 73.5106 18.336C73.2866 18.0053 73.1266 17.6853 73.0306 17.376C72.9452 17.056 72.9186 16.784 72.9506 16.56Z" fill="white"/>
<path d="M88.7057 20.176C88.055 20.176 87.5004 20.048 87.0417 19.792C86.5937 19.536 86.231 19.2 85.9537 18.784C85.687 18.3573 85.4897 17.904 85.3617 17.424C85.2337 16.9333 85.1697 16.4693 85.1697 16.032C85.1697 15.4453 85.2284 14.9013 85.3457 14.4C85.4737 13.8987 85.671 13.4613 85.9377 13.088C86.215 12.704 86.5777 12.4053 87.0257 12.192C87.4844 11.968 88.0444 11.856 88.7057 11.856C89.4524 11.856 90.1244 12.0373 90.7217 12.4C91.319 12.752 91.7937 13.2427 92.1457 13.872C92.4977 14.4907 92.6737 15.2107 92.6737 16.032C92.6737 16.8533 92.4924 17.5787 92.1297 18.208C91.7777 18.8267 91.303 19.312 90.7057 19.664C90.1084 20.0053 89.4417 20.176 88.7057 20.176ZM88.1777 18.704C88.711 18.704 89.1804 18.592 89.5857 18.368C89.991 18.144 90.3057 17.8293 90.5297 17.424C90.7537 17.0187 90.8657 16.5547 90.8657 16.032C90.8657 15.232 90.631 14.5813 90.1617 14.08C89.6924 13.568 89.031 13.312 88.1777 13.312C87.6444 13.312 87.1644 13.424 86.7377 13.648C86.311 13.872 85.975 14.1867 85.7297 14.592C85.4844 14.9867 85.3617 15.4667 85.3617 16.032C85.3617 16.544 85.4737 17.0027 85.6977 17.408C85.9217 17.8133 86.2417 18.1333 86.6577 18.368C87.0737 18.592 87.5804 18.704 88.1777 18.704ZM83.5857 12.032H85.2817L85.3617 13.984V23.2H83.5857V12.032Z" fill="white"/>
<path d="M97.8096 20.176C97.0842 20.176 96.4176 20 95.8096 19.648C95.2122 19.296 94.7322 18.8107 94.3696 18.192C94.0176 17.5627 93.8416 16.8427 93.8416 16.032C93.8416 15.2 94.0229 14.4747 94.3856 13.856C94.7482 13.2267 95.2389 12.736 95.8576 12.384C96.4762 12.032 97.1696 11.856 97.9376 11.856C98.7909 11.856 99.4682 12.0427 99.9696 12.416C100.471 12.7893 100.828 13.2907 101.042 13.92C101.255 14.5493 101.362 15.2533 101.362 16.032C101.362 16.4693 101.298 16.9333 101.17 17.424C101.042 17.904 100.839 18.352 100.562 18.768C100.295 19.184 99.9322 19.5253 99.4736 19.792C99.0256 20.048 98.4709 20.176 97.8096 20.176ZM98.3536 18.704C98.9509 18.704 99.4576 18.592 99.8736 18.368C100.3 18.1333 100.62 17.8133 100.834 17.408C101.058 17.0027 101.17 16.544 101.17 16.032C101.17 15.4667 101.058 14.9867 100.834 14.592C100.61 14.1867 100.29 13.8773 99.8736 13.664C99.4576 13.44 98.9509 13.328 98.3536 13.328C97.5002 13.328 96.8389 13.5787 96.3696 14.08C95.9002 14.5813 95.6656 15.232 95.6656 16.032C95.6656 16.5547 95.7776 17.0187 96.0016 17.424C96.2362 17.8293 96.5562 18.144 96.9616 18.368C97.3669 18.592 97.8309 18.704 98.3536 18.704ZM101.17 12.032H102.962V20H101.298C101.298 20 101.287 19.8987 101.266 19.696C101.244 19.4933 101.223 19.248 101.202 18.96C101.18 18.6613 101.17 18.3787 101.17 18.112V12.032Z" fill="white"/>
<path d="M113.49 16.912C113.426 17.5947 113.207 18.1813 112.834 18.672C112.46 19.1627 111.959 19.536 111.33 19.792C110.711 20.048 109.996 20.176 109.186 20.176C108.311 20.176 107.516 20.016 106.802 19.696C106.098 19.376 105.538 18.9067 105.122 18.288C104.706 17.6693 104.498 16.9173 104.498 16.032C104.498 15.1467 104.706 14.3947 105.122 13.776C105.538 13.1573 106.098 12.6827 106.802 12.352C107.516 12.0213 108.311 11.856 109.186 11.856C109.996 11.856 110.711 11.9893 111.33 12.256C111.948 12.512 112.444 12.88 112.818 13.36C113.191 13.84 113.41 14.4213 113.474 15.104H111.842C111.66 14.5387 111.33 14.1013 110.85 13.792C110.38 13.472 109.826 13.312 109.186 13.312C108.663 13.312 108.183 13.4187 107.746 13.632C107.308 13.8347 106.956 14.1387 106.69 14.544C106.434 14.9387 106.306 15.4347 106.306 16.032C106.306 16.6187 106.434 17.1147 106.69 17.52C106.956 17.9253 107.308 18.2293 107.746 18.432C108.183 18.624 108.663 18.72 109.186 18.72C109.89 18.72 110.466 18.5653 110.914 18.256C111.372 17.936 111.687 17.488 111.858 16.912H113.49Z" fill="white"/>
<path d="M121.71 17.376H123.422C123.337 17.92 123.124 18.4053 122.782 18.832C122.452 19.248 121.998 19.5787 121.422 19.824C120.846 20.0587 120.158 20.176 119.358 20.176C118.452 20.176 117.641 20.0107 116.926 19.68C116.212 19.3387 115.652 18.8587 115.246 18.24C114.841 17.6213 114.638 16.8853 114.638 16.032C114.638 15.1893 114.836 14.4533 115.23 13.824C115.625 13.1947 116.169 12.7093 116.862 12.368C117.566 12.0267 118.377 11.856 119.294 11.856C120.244 11.856 121.033 12.0267 121.662 12.368C122.302 12.6987 122.777 13.2 123.086 13.872C123.396 14.5333 123.524 15.3707 123.47 16.384H116.446C116.5 16.832 116.644 17.2373 116.878 17.6C117.124 17.952 117.454 18.2293 117.87 18.432C118.286 18.624 118.772 18.72 119.326 18.72C119.945 18.72 120.462 18.5973 120.878 18.352C121.305 18.1067 121.582 17.7813 121.71 17.376ZM119.246 13.296C118.521 13.296 117.924 13.4773 117.454 13.84C116.985 14.192 116.681 14.6453 116.542 15.2H121.678C121.636 14.6027 121.396 14.1387 120.958 13.808C120.521 13.4667 119.95 13.296 119.246 13.296Z" fill="white"/>
<path d="M126.75 17.568V16.016H132.926V17.568H126.75ZM124.35 20L128.878 9.632H130.83L135.39 20H133.422L129.454 10.64H130.254L126.302 20H124.35Z" fill="white"/>
<path d="M141.799 20.176C141.149 20.176 140.594 20.048 140.135 19.792C139.687 19.536 139.325 19.2 139.047 18.784C138.781 18.3573 138.583 17.904 138.455 17.424C138.327 16.9333 138.263 16.4693 138.263 16.032C138.263 15.4453 138.322 14.9013 138.439 14.4C138.567 13.8987 138.765 13.4613 139.031 13.088C139.309 12.704 139.671 12.4053 140.119 12.192C140.578 11.968 141.138 11.856 141.799 11.856C142.546 11.856 143.218 12.0373 143.815 12.4C144.413 12.752 144.887 13.2427 145.239 13.872C145.591 14.4907 145.767 15.2107 145.767 16.032C145.767 16.8533 145.586 17.5787 145.223 18.208C144.871 18.8267 144.397 19.312 143.799 19.664C143.202 20.0053 142.535 20.176 141.799 20.176ZM141.271 18.704C141.805 18.704 142.274 18.592 142.679 18.368C143.085 18.144 143.399 17.8293 143.623 17.424C143.847 17.0187 143.959 16.5547 143.959 16.032C143.959 15.232 143.725 14.5813 143.255 14.08C142.786 13.568 142.125 13.312 141.271 13.312C140.738 13.312 140.258 13.424 139.831 13.648C139.405 13.872 139.069 14.1867 138.823 14.592C138.578 14.9867 138.455 15.4667 138.455 16.032C138.455 16.544 138.567 17.0027 138.791 17.408C139.015 17.8133 139.335 18.1333 139.751 18.368C140.167 18.592 140.674 18.704 141.271 18.704ZM136.679 12.032H138.375L138.455 13.984V23.2H136.679V12.032Z" fill="white"/>
<path d="M152.471 20.176C151.821 20.176 151.266 20.048 150.807 19.792C150.359 19.536 149.997 19.2 149.719 18.784C149.453 18.3573 149.255 17.904 149.127 17.424C148.999 16.9333 148.935 16.4693 148.935 16.032C148.935 15.4453 148.994 14.9013 149.111 14.4C149.239 13.8987 149.437 13.4613 149.703 13.088C149.981 12.704 150.343 12.4053 150.791 12.192C151.25 11.968 151.81 11.856 152.471 11.856C153.218 11.856 153.89 12.0373 154.487 12.4C155.085 12.752 155.559 13.2427 155.911 13.872C156.263 14.4907 156.439 15.2107 156.439 16.032C156.439 16.8533 156.258 17.5787 155.895 18.208C155.543 18.8267 155.069 19.312 154.471 19.664C153.874 20.0053 153.207 20.176 152.471 20.176ZM151.943 18.704C152.477 18.704 152.946 18.592 153.351 18.368C153.757 18.144 154.071 17.8293 154.295 17.424C154.519 17.0187 154.631 16.5547 154.631 16.032C154.631 15.232 154.397 14.5813 153.927 14.08C153.458 13.568 152.797 13.312 151.943 13.312C151.41 13.312 150.93 13.424 150.503 13.648C150.077 13.872 149.741 14.1867 149.495 14.592C149.25 14.9867 149.127 15.4667 149.127 16.032C149.127 16.544 149.239 17.0027 149.463 17.408C149.687 17.8133 150.007 18.1333 150.423 18.368C150.839 18.592 151.346 18.704 151.943 18.704ZM147.351 12.032H149.047L149.127 13.984V23.2H147.351V12.032Z" fill="white"/>
<rect width="30" height="30" rx="4" fill="#373836"/>
<path d="M5.71861 14.5836C6.00675 14.5836 6.29626 14.4733 6.51685 14.2527L8.86751 11.9021L11.2182 14.2527C11.4305 14.4651 11.7173 14.5836 12.0164 14.5836H12.0274C12.3266 14.5836 12.6134 14.4651 12.8257 14.2527L15.1764 11.9021L17.527 14.2527C17.7393 14.4651 18.0261 14.5836 18.3253 14.5836H18.3363C18.6355 14.5836 18.9222 14.4651 19.1345 14.2527L21.4852 11.9021L23.8359 14.2527C24.277 14.6939 24.9912 14.6939 25.4323 14.2527C25.8735 13.8116 25.8735 13.0974 25.4323 12.6562L22.2834 9.50733C22.0711 9.29502 21.7843 9.17645 21.4852 9.17645C21.186 9.17645 20.8992 9.29502 20.6869 9.50733L18.3294 11.8649L15.9732 9.50733C15.7609 9.29502 15.4741 9.17645 15.175 9.17645C14.8758 9.17645 14.589 9.29502 14.3767 9.50733L12.0206 11.8649L9.66442 9.50733C9.4521 9.29502 9.16532 9.17645 8.86617 9.17645C8.567 9.17645 8.28022 9.29502 8.06792 9.50733L4.91902 12.6562C4.47784 13.0974 4.47784 13.8116 4.91902 14.2527C5.14099 14.4733 5.42909 14.5836 5.71861 14.5836Z" fill="#C1752C"/>
<path d="M22.2863 15.4992C22.074 15.2868 21.7872 15.1683 21.488 15.1683C21.1889 15.1683 20.9021 15.2868 20.6898 15.4992L18.3336 17.8567L15.9761 15.4992C15.7638 15.2868 15.477 15.1683 15.1778 15.1683C14.8787 15.1683 14.5919 15.2868 14.3796 15.4992L12.0234 17.8567L9.66588 15.4992C9.45357 15.2868 9.16679 15.1683 8.86763 15.1683C8.56848 15.1683 8.28168 15.2868 8.06939 15.4992L4.92048 18.6481C4.47931 19.0892 4.47931 19.8034 4.92048 20.2446C5.36166 20.6844 6.0758 20.6844 6.51698 20.2446L8.86763 17.8939L11.2183 20.2446C11.4306 20.4569 11.7174 20.5754 12.0165 20.5754H12.0276C12.3267 20.5754 12.6135 20.4569 12.8258 20.2446L15.1765 17.8939L17.5271 20.2446C17.7395 20.4569 18.0262 20.5754 18.3254 20.5754H18.3364C18.6356 20.5754 18.9224 20.4569 19.1347 20.2446L21.4853 17.8939L23.836 20.2446C24.0566 20.4651 24.3447 20.5754 24.6342 20.5754C24.9237 20.5754 25.2119 20.4651 25.4325 20.2446C25.8723 19.8034 25.8723 19.0892 25.4325 18.6481L22.2863 15.4992Z" fill="#C1752C"/>
</svg>
