<svg width="164" height="15" viewBox="0 0 164 15" fill="none" xmlns="http://www.w3.org/2000/svg">
<path d="M1.44144 6.89458C1.80885 6.89458 2.17801 6.75395 2.45927 6.47268L5.45656 3.4754L8.45384 6.47268C8.72456 6.7434 9.09023 6.89458 9.47168 6.89458H9.48574C9.86721 6.89458 10.2329 6.7434 10.5036 6.47268L13.5009 3.4754L16.4981 6.47268C16.7689 6.7434 17.1345 6.89458 17.516 6.89458H17.53C17.9115 6.89458 18.2772 6.7434 18.5479 6.47268L21.5452 3.4754L24.5424 6.47268C25.105 7.03522 26.0156 7.03522 26.5781 6.47268C27.1406 5.91014 27.1406 4.99956 26.5781 4.43702L22.563 0.421902C22.2923 0.151183 21.9266 0 21.5452 0C21.1637 0 20.798 0.151183 20.5273 0.421902L17.5213 3.42796L14.517 0.421902C14.2462 0.151183 13.8806 0 13.4991 0C13.1177 0 12.752 0.151183 12.4813 0.421902L9.47699 3.42796L6.47268 0.421902C6.20196 0.151183 5.83629 0 5.45485 0C5.07338 0 4.70771 0.151183 4.43702 0.421902L0.421902 4.43702C-0.140634 4.99956 -0.140634 5.91014 0.421902 6.47268C0.70493 6.75395 1.07228 6.89458 1.44144 6.89458Z" fill="#21C66C"/>
<path d="M22.5667 8.06196C22.296 7.79124 21.9303 7.64006 21.5489 7.64006C21.1674 7.64006 20.8017 7.79124 20.531 8.06196L17.5267 11.068L14.5207 8.06196C14.2499 7.79124 13.8843 7.64006 13.5028 7.64006C13.1214 7.64006 12.7557 7.79124 12.485 8.06196L9.48069 11.068L6.47463 8.06196C6.20391 7.79124 5.83825 7.64006 5.4568 7.64006C5.07536 7.64006 4.70966 7.79124 4.43897 8.06196L0.423856 12.0771C-0.138681 12.6396 -0.138681 13.5502 0.423856 14.1127C0.986392 14.6735 1.89698 14.6735 2.45952 14.1127L5.4568 11.1155L8.45409 14.1127C8.72481 14.3835 9.09047 14.5346 9.47192 14.5346H9.48598C9.86745 14.5346 10.2331 14.3835 10.5038 14.1127L13.5011 11.1155L16.4984 14.1127C16.7691 14.3835 17.1348 14.5346 17.5162 14.5346H17.5303C17.9117 14.5346 18.2774 14.3835 18.5481 14.1127L21.5454 11.1155L24.5427 14.1127C24.8239 14.394 25.1913 14.5346 25.5605 14.5346C25.9297 14.5346 26.2971 14.394 26.5783 14.1127C27.1391 13.5502 27.1391 12.6396 26.5783 12.0771L22.5667 8.06196Z" fill="#21C66C"/>
<path d="M159.009 11.8926C158.305 11.8926 157.702 11.7658 157.201 11.5124C156.71 11.2479 156.31 10.9063 156.001 10.4876C155.691 10.0578 155.462 9.58953 155.313 9.08264C155.163 8.57575 155.089 8.07988 155.089 7.59504C155.089 6.98898 155.158 6.42699 155.297 5.90909C155.446 5.39118 155.675 4.93939 155.985 4.55371C156.294 4.15702 156.694 3.84848 157.185 3.62809C157.686 3.40771 158.294 3.29752 159.009 3.29752C159.809 3.29752 160.529 3.47933 161.169 3.84297C161.809 4.20661 162.315 4.71349 162.689 5.36363C163.073 6.00275 163.265 6.74655 163.265 7.59504C163.265 8.46556 163.073 9.22589 162.689 9.87603C162.305 10.5151 161.793 11.011 161.153 11.3636C160.513 11.7162 159.798 11.8926 159.009 11.8926ZM158.337 10.2231C158.902 10.2231 159.393 10.1129 159.809 9.89256C160.235 9.67217 160.561 9.36914 160.785 8.98347C161.019 8.58677 161.137 8.12396 161.137 7.59504C161.137 6.80165 160.891 6.16253 160.401 5.67768C159.921 5.19283 159.233 4.95041 158.337 4.95041C157.771 4.95041 157.254 5.05509 156.785 5.26446C156.326 5.47382 155.963 5.77685 155.697 6.17355C155.43 6.55922 155.297 7.03305 155.297 7.59504C155.297 8.12396 155.419 8.58677 155.665 8.98347C155.91 9.36914 156.262 9.67217 156.721 9.89256C157.179 10.1129 157.718 10.2231 158.337 10.2231ZM153.217 3.47933H155.201L155.297 5.66115V15H153.217V3.47933Z" fill="#21C66C"/>
<path d="M147.431 11.8926C146.727 11.8926 146.124 11.7658 145.623 11.5124C145.132 11.2479 144.732 10.9063 144.423 10.4876C144.113 10.0578 143.884 9.58953 143.735 9.08264C143.585 8.57575 143.511 8.07988 143.511 7.59504C143.511 6.98898 143.58 6.42699 143.719 5.90909C143.868 5.39118 144.097 4.93939 144.407 4.55371C144.716 4.15702 145.116 3.84848 145.607 3.62809C146.108 3.40771 146.716 3.29752 147.431 3.29752C148.231 3.29752 148.951 3.47933 149.591 3.84297C150.231 4.20661 150.737 4.71349 151.111 5.36363C151.495 6.00275 151.687 6.74655 151.687 7.59504C151.687 8.46556 151.495 9.22589 151.111 9.87603C150.727 10.5151 150.215 11.011 149.575 11.3636C148.935 11.7162 148.22 11.8926 147.431 11.8926ZM146.759 10.2231C147.324 10.2231 147.815 10.1129 148.231 9.89256C148.657 9.67217 148.983 9.36914 149.207 8.98347C149.441 8.58677 149.559 8.12396 149.559 7.59504C149.559 6.80165 149.313 6.16253 148.823 5.67768C148.343 5.19283 147.655 4.95041 146.759 4.95041C146.193 4.95041 145.676 5.05509 145.207 5.26446C144.748 5.47382 144.385 5.77685 144.119 6.17355C143.852 6.55922 143.719 7.03305 143.719 7.59504C143.719 8.12396 143.841 8.58677 144.087 8.98347C144.332 9.36914 144.684 9.67217 145.143 9.89256C145.601 10.1129 146.14 10.2231 146.759 10.2231ZM141.639 3.47933H143.623L143.719 5.66115V15H141.639V3.47933Z" fill="#21C66C"/>
<path d="M130.902 9.36364V7.52893H137.75V9.36364H130.902ZM128.326 11.6942L133.19 1H135.494L140.406 11.6942H138.086L133.83 2.05785H134.854L130.63 11.6942H128.326Z" fill="#21C66C"/>
<path d="M125.419 8.96694H127.435C127.35 9.52892 127.12 10.0303 126.747 10.4711C126.384 10.9118 125.888 11.2589 125.259 11.5124C124.63 11.7658 123.862 11.8926 122.955 11.8926C121.942 11.8926 121.046 11.7273 120.267 11.3967C119.488 11.0551 118.88 10.5647 118.443 9.92562C118.006 9.2865 117.787 8.51515 117.787 7.61157C117.787 6.70798 118 5.93663 118.427 5.29752C118.854 4.64738 119.446 4.15151 120.203 3.80991C120.971 3.46831 121.867 3.29752 122.891 3.29752C123.936 3.29752 124.806 3.46831 125.499 3.80991C126.192 4.15151 126.704 4.66942 127.035 5.36363C127.376 6.04683 127.52 6.92286 127.467 7.99173H119.883C119.936 8.41046 120.086 8.79063 120.331 9.13223C120.587 9.47383 120.928 9.7438 121.355 9.94214C121.792 10.1405 122.31 10.2397 122.907 10.2397C123.568 10.2397 124.118 10.124 124.555 9.89256C125.003 9.65013 125.291 9.34159 125.419 8.96694ZM122.795 4.93388C122.027 4.93388 121.403 5.11019 120.923 5.46281C120.443 5.8044 120.134 6.22865 119.995 6.73553H125.403C125.35 6.18457 125.094 5.74931 124.635 5.42975C124.187 5.09917 123.574 4.93388 122.795 4.93388Z" fill="#21C66C"/>
<path d="M116.642 8.45454C116.589 9.1708 116.365 9.78787 115.97 10.3058C115.586 10.8237 115.053 11.2204 114.37 11.4959C113.688 11.7603 112.877 11.8926 111.938 11.8926C110.957 11.8926 110.077 11.7328 109.298 11.4132C108.53 11.0826 107.922 10.6033 107.474 9.9752C107.037 9.33608 106.818 8.54821 106.818 7.61157C106.818 6.67493 107.037 5.88705 107.474 5.24793C107.922 4.60881 108.53 4.12396 109.298 3.79338C110.077 3.46281 110.957 3.29752 111.938 3.29752C112.877 3.29752 113.682 3.43526 114.354 3.71074C115.026 3.9752 115.554 4.36088 115.938 4.86776C116.333 5.37465 116.562 5.98622 116.626 6.70247H114.722C114.541 6.15151 114.205 5.72176 113.714 5.41322C113.224 5.10468 112.632 4.95041 111.938 4.95041C111.384 4.95041 110.877 5.04958 110.418 5.24793C109.97 5.44628 109.608 5.7438 109.33 6.14049C109.064 6.52617 108.93 7.01652 108.93 7.61157C108.93 8.19559 109.064 8.68595 109.33 9.08264C109.597 9.46832 109.96 9.76033 110.418 9.95867C110.877 10.146 111.384 10.2397 111.938 10.2397C112.685 10.2397 113.293 10.0854 113.762 9.77686C114.242 9.46832 114.568 9.02754 114.738 8.45454H116.642Z" fill="#21C66C"/>
<path d="M99.5119 11.876C98.7225 11.876 98.0025 11.6997 97.3519 11.3471C96.7119 10.9835 96.1999 10.4821 95.8159 9.84297C95.4425 9.19283 95.2559 8.44352 95.2559 7.59504C95.2559 6.72451 95.4479 5.96969 95.8319 5.33057C96.2159 4.69146 96.7332 4.19559 97.3839 3.84297C98.0452 3.47933 98.7919 3.29752 99.6239 3.29752C100.541 3.29752 101.277 3.49035 101.832 3.87603C102.397 4.25068 102.808 4.76308 103.064 5.41322C103.32 6.06336 103.448 6.79063 103.448 7.59504C103.448 8.07988 103.373 8.57575 103.224 9.08264C103.075 9.57851 102.845 10.0413 102.536 10.4711C102.227 10.8898 101.821 11.2314 101.32 11.4959C100.819 11.7493 100.216 11.876 99.5119 11.876ZM100.184 10.2231C100.813 10.2231 101.357 10.1129 101.816 9.89256C102.275 9.67217 102.627 9.36363 102.872 8.96694C103.117 8.57024 103.24 8.11294 103.24 7.59504C103.24 7.03305 103.112 6.55922 102.856 6.17355C102.611 5.77685 102.259 5.47933 101.8 5.28099C101.352 5.07162 100.813 4.96694 100.184 4.96694C99.2985 4.96694 98.6105 5.20936 98.1199 5.69421C97.6292 6.16804 97.3839 6.80165 97.3839 7.59504C97.3839 8.12396 97.5012 8.58677 97.7359 8.98347C97.9705 9.36914 98.2959 9.67217 98.7119 9.89256C99.1385 10.1129 99.6292 10.2231 100.184 10.2231ZM103.24 3.47933H105.32V11.6942H103.384C103.384 11.6942 103.368 11.5895 103.336 11.3802C103.315 11.1598 103.293 10.8843 103.272 10.5537C103.251 10.2231 103.24 9.89807 103.24 9.57851V3.47933Z" fill="#21C66C"/>
<path d="M89.8525 11.8926C89.1485 11.8926 88.5459 11.7658 88.0445 11.5124C87.5539 11.2479 87.1539 10.9063 86.8445 10.4876C86.5352 10.0578 86.3059 9.58953 86.1565 9.08264C86.0072 8.57575 85.9325 8.07988 85.9325 7.59504C85.9325 6.98898 86.0019 6.42699 86.1405 5.90909C86.2899 5.39118 86.5192 4.93939 86.8285 4.55371C87.1379 4.15702 87.5379 3.84848 88.0285 3.62809C88.5299 3.40771 89.1379 3.29752 89.8525 3.29752C90.6525 3.29752 91.3726 3.47933 92.0126 3.84297C92.6526 4.20661 93.1592 4.71349 93.5325 5.36363C93.9165 6.00275 94.1085 6.74655 94.1085 7.59504C94.1085 8.46556 93.9165 9.22589 93.5325 9.87603C93.1485 10.5151 92.6365 11.011 91.9965 11.3636C91.3565 11.7162 90.6419 11.8926 89.8525 11.8926ZM89.1805 10.2231C89.7459 10.2231 90.2365 10.1129 90.6525 9.89256C91.0792 9.67217 91.4045 9.36914 91.6285 8.98347C91.8632 8.58677 91.9805 8.12396 91.9805 7.59504C91.9805 6.80165 91.7352 6.16253 91.2445 5.67768C90.7645 5.19283 90.0765 4.95041 89.1805 4.95041C88.6152 4.95041 88.0979 5.05509 87.6285 5.26446C87.1699 5.47382 86.8072 5.77685 86.5405 6.17355C86.2739 6.55922 86.1405 7.03305 86.1405 7.59504C86.1405 8.12396 86.2632 8.58677 86.5085 8.98347C86.7539 9.36914 87.1059 9.67217 87.5645 9.89256C88.0232 10.1129 88.5619 10.2231 89.1805 10.2231ZM84.0605 3.47933H86.0445L86.1405 5.66115V15H84.0605V3.47933Z" fill="#21C66C"/>
<path d="M74.7092 8.96694H76.6292C76.7465 9.34159 76.9865 9.65013 77.3492 9.89256C77.7225 10.124 78.2078 10.2397 78.8052 10.2397C79.2105 10.2397 79.5252 10.2011 79.7492 10.124C79.9732 10.0468 80.1278 9.93663 80.2132 9.79338C80.2985 9.63911 80.3412 9.46832 80.3412 9.28099C80.3412 9.04958 80.2718 8.87327 80.1332 8.75206C79.9945 8.61983 79.7812 8.51515 79.4932 8.43801C79.2052 8.36088 78.8372 8.28925 78.3892 8.22314C77.9412 8.146 77.5092 8.05234 77.0932 7.94214C76.6772 7.83195 76.3092 7.6887 75.9892 7.51239C75.6692 7.32506 75.4132 7.09366 75.2212 6.81818C75.0398 6.53168 74.9492 6.18457 74.9492 5.77685C74.9492 5.38016 75.0398 5.02754 75.2212 4.719C75.4132 4.41046 75.6745 4.15151 76.0052 3.94214C76.3465 3.73278 76.7412 3.573 77.1892 3.4628C77.6478 3.35261 78.1385 3.29752 78.6612 3.29752C79.4505 3.29752 80.1065 3.41873 80.6292 3.66115C81.1518 3.89256 81.5412 4.22314 81.7972 4.65289C82.0638 5.07162 82.1972 5.55647 82.1972 6.10743H80.3572C80.2718 5.69972 80.1012 5.40771 79.8452 5.2314C79.5892 5.04407 79.1945 4.95041 78.6612 4.95041C78.1385 4.95041 77.7438 5.03305 77.4772 5.19834C77.2105 5.36363 77.0772 5.58953 77.0772 5.87603C77.0772 6.10743 77.1572 6.28925 77.3172 6.42148C77.4878 6.5427 77.7332 6.64187 78.0532 6.719C78.3838 6.79614 78.7945 6.87878 79.2852 6.96694C79.7012 7.05509 80.0958 7.15427 80.4692 7.26446C80.8532 7.37465 81.1945 7.5179 81.4932 7.69421C81.7918 7.8595 82.0265 8.0854 82.1972 8.3719C82.3785 8.64738 82.4692 9 82.4692 9.42975C82.4692 9.95867 82.3198 10.405 82.0212 10.7686C81.7332 11.1322 81.3172 11.4132 80.7732 11.6116C80.2292 11.7989 79.5785 11.8926 78.8212 11.8926C78.1492 11.8926 77.5678 11.8209 77.0772 11.6777C76.5972 11.5234 76.1972 11.3306 75.8772 11.0992C75.5572 10.8567 75.3065 10.6033 75.1252 10.3388C74.9545 10.0634 74.8372 9.8044 74.7732 9.56198C74.7092 9.31956 74.6878 9.12121 74.7092 8.96694Z" fill="#21C66C"/>
<path d="M63.9355 3.47933H66.0155V11.6942H63.9355V3.47933ZM69.7115 3.29752C70.2022 3.29752 70.6555 3.36363 71.0715 3.49586C71.4875 3.62809 71.8502 3.83195 72.1595 4.10743C72.4689 4.38292 72.7089 4.73553 72.8795 5.16528C73.0502 5.58402 73.1355 6.08539 73.1355 6.66942V11.6942H71.0555V7.04958C71.0555 6.35537 70.8902 5.84848 70.5595 5.52892C70.2395 5.19834 69.7115 5.03305 68.9755 5.03305C68.4209 5.03305 67.9195 5.14325 67.4715 5.36363C67.0235 5.58402 66.6609 5.86501 66.3835 6.20661C66.1062 6.53719 65.9462 6.88429 65.9035 7.24793L65.8875 6.40495C65.9409 6.01928 66.0635 5.64462 66.2555 5.28099C66.4475 4.91735 66.7035 4.58677 67.0235 4.28925C67.3542 3.98071 67.7435 3.73829 68.1915 3.56198C68.6395 3.38567 69.1462 3.29752 69.7115 3.29752Z" fill="#21C66C"/>
<path d="M60.341 8.96694H62.357C62.2717 9.52892 62.0423 10.0303 61.669 10.4711C61.3063 10.9118 60.8103 11.2589 60.181 11.5124C59.5517 11.7658 58.7837 11.8926 57.877 11.8926C56.8636 11.8926 55.9677 11.7273 55.189 11.3967C54.4103 11.0551 53.8023 10.5647 53.365 9.92562C52.9277 9.2865 52.709 8.51515 52.709 7.61157C52.709 6.70798 52.9223 5.93663 53.349 5.29752C53.7757 4.64738 54.3677 4.15151 55.125 3.80991C55.893 3.46831 56.789 3.29752 57.813 3.29752C58.8583 3.29752 59.7277 3.46831 60.421 3.80991C61.1143 4.15151 61.6263 4.66942 61.957 5.36363C62.2983 6.04683 62.4423 6.92286 62.389 7.99173H54.805C54.8583 8.41046 55.0077 8.79063 55.253 9.13223C55.509 9.47383 55.8503 9.7438 56.277 9.94214C56.7143 10.1405 57.2317 10.2397 57.829 10.2397C58.4903 10.2397 59.0397 10.124 59.477 9.89256C59.925 9.65013 60.213 9.34159 60.341 8.96694ZM57.717 4.93388C56.949 4.93388 56.325 5.11019 55.845 5.46281C55.365 5.8044 55.0557 6.22865 54.917 6.73553H60.325C60.2717 6.18457 60.0157 5.74931 59.557 5.42975C59.109 5.09917 58.4957 4.93388 57.717 4.93388Z" fill="#21C66C"/>
<path d="M40 1H51.12V2.83471L41.888 10.4711L41.696 9.8595H51.12V11.6942H40V9.8595L49.232 2.22314L49.424 2.83471H40V1Z" fill="#21C66C"/>
</svg>
