<svg width="258" height="250" viewBox="0 0 258 250" fill="none" xmlns="http://www.w3.org/2000/svg">
<path fill-rule="evenodd" clip-rule="evenodd" d="M41.7253 250H216.026C229.75 250 240.118 246.313 247.13 238.938C254.143 231.563 257.649 220.697 257.649 206.341V43.6592C257.649 29.3025 254.143 18.4368 247.13 11.0621C240.118 3.68737 229.75 0 216.026 0H41.7253C28.002 0 17.617 3.68737 10.5702 11.0621C3.5234 18.4368 0 29.3025 0 43.6592V206.341C0 220.697 3.5234 231.563 10.5702 238.938C17.617 246.313 28.002 250 41.7253 250ZM111.897 111.417H104.454C102.214 111.417 100.64 110.982 99.7315 110.11C98.8227 109.239 98.3683 107.619 98.3683 105.251V97.3871C98.3683 95.0206 98.8227 93.3832 99.7315 92.475C100.64 91.5669 102.214 91.1128 104.454 91.1128H111.897C114.136 91.1128 115.711 91.5669 116.619 92.475C117.528 93.3832 117.982 95.0206 117.982 97.3871V105.251C117.982 107.619 117.528 109.239 116.619 110.11C115.711 110.982 114.136 111.417 111.897 111.417ZM153.195 111.417H145.832C143.539 111.417 141.955 110.982 141.081 110.11C140.207 109.239 139.771 107.619 139.771 105.251V97.3871C139.771 95.0206 140.207 93.3832 141.081 92.475C141.955 91.5669 143.539 91.1128 145.832 91.1128H153.195C155.502 91.1128 157.09 91.5669 157.957 92.475C158.824 93.3832 159.258 95.0206 159.258 97.3871V105.251C159.258 107.619 158.824 109.239 157.957 110.11C157.09 110.982 155.502 111.417 153.195 111.417ZM187.112 111.417H194.577C196.802 111.417 198.352 110.982 199.226 110.11C200.101 109.239 200.538 107.619 200.538 105.251V97.3871C200.538 95.0206 200.101 93.3832 199.226 92.475C198.352 91.5669 196.802 91.1128 194.577 91.1128H187.112C184.804 91.1128 183.217 91.5669 182.351 92.475C181.484 93.3832 181.051 95.0206 181.051 97.3871V105.251C181.051 107.619 181.484 109.239 182.351 110.11C183.217 110.982 184.804 111.417 187.112 111.417ZM70.6354 154.387H63.1701C60.8623 154.387 59.2751 153.951 58.4085 153.08C57.5419 152.209 57.1086 150.59 57.1086 148.223V140.334C57.1086 137.966 57.5419 136.346 58.4085 135.475C59.2751 134.604 60.8623 134.168 63.1701 134.168H70.6354C72.8747 134.168 74.428 134.604 75.2953 135.475C76.1626 136.346 76.5962 137.966 76.5962 140.334V148.223C76.5962 150.59 76.1626 152.209 75.2953 153.08C74.428 153.951 72.8747 154.387 70.6354 154.387ZM104.454 154.387H111.897C114.136 154.387 115.711 153.951 116.619 153.08C117.528 152.209 117.982 150.59 117.982 148.223V140.334C117.982 137.966 117.528 136.346 116.619 135.475C115.711 134.604 114.136 134.168 111.897 134.168H104.454C102.214 134.168 100.64 134.604 99.7315 135.475C98.8227 136.346 98.3683 137.966 98.3683 140.334V148.223C98.3683 150.59 98.8227 152.209 99.7315 153.08C100.64 153.951 102.214 154.387 104.454 154.387ZM153.195 154.387H145.832C143.539 154.387 141.955 153.951 141.081 153.08C140.207 152.209 139.771 150.59 139.771 148.223V140.334C139.771 137.966 140.207 136.346 141.081 135.475C141.955 134.604 143.539 134.168 145.832 134.168H153.195C155.502 134.168 157.09 134.604 157.957 135.475C158.824 136.346 159.258 137.966 159.258 140.334V148.223C159.258 150.59 158.824 152.209 157.957 153.08C157.09 153.951 155.502 154.387 153.195 154.387ZM187.112 154.387H194.577C196.802 154.387 198.352 153.951 199.226 153.08C200.101 152.209 200.538 150.59 200.538 148.223V140.334C200.538 137.966 200.101 136.346 199.226 135.475C198.352 134.604 196.802 134.168 194.577 134.168H187.112C184.804 134.168 183.217 134.604 182.351 135.475C181.484 136.346 181.051 137.966 181.051 140.334V148.223C181.051 150.59 181.484 152.209 182.351 153.08C183.217 153.951 184.804 154.387 187.112 154.387ZM70.6354 197.436H63.1701C60.8623 197.436 59.2751 196.982 58.4085 196.074C57.5419 195.166 57.1086 193.528 57.1086 191.162V183.297C57.1086 180.931 57.5419 179.312 58.4085 178.44C59.2751 177.568 60.8623 177.132 63.1701 177.132H70.6354C72.8747 177.132 74.428 177.568 75.2953 178.44C76.1626 179.312 76.5962 180.931 76.5962 183.297V191.162C76.5962 193.528 76.1626 195.166 75.2953 196.074C74.428 196.982 72.8747 197.436 70.6354 197.436ZM104.454 197.436H111.897C114.136 197.436 115.711 196.982 116.619 196.074C117.528 195.166 117.982 193.528 117.982 191.162V183.297C117.982 180.931 117.528 179.312 116.619 178.44C115.711 177.568 114.136 177.132 111.897 177.132H104.454C102.214 177.132 100.64 177.568 99.7315 178.44C98.8227 179.312 98.3683 180.931 98.3683 183.297V191.162C98.3683 193.528 98.8227 195.166 99.7315 196.074C100.64 196.982 102.214 197.436 104.454 197.436ZM153.195 197.436H145.832C143.539 197.436 141.955 196.982 141.081 196.074C140.207 195.166 139.771 193.528 139.771 191.162V183.297C139.771 180.931 140.207 179.312 141.081 178.44C141.955 177.568 143.539 177.132 145.832 177.132H153.195C155.502 177.132 157.09 177.568 157.957 178.44C158.824 179.312 159.258 180.931 159.258 183.297V191.162C159.258 193.528 158.824 195.166 157.957 196.074C157.09 196.982 155.502 197.436 153.195 197.436ZM29.5469 218.882C32.3516 221.777 36.3677 223.224 41.5949 223.224H215.959C221.255 223.224 225.305 221.777 228.11 218.882C230.915 215.987 232.317 211.635 232.317 205.828V82.7214C232.317 76.9144 230.915 72.5633 228.11 69.6681C225.305 66.773 221.255 65.3254 215.959 65.3254H41.5949C36.3677 65.3254 32.3516 66.773 29.5469 69.6681C26.7421 72.5633 25.3398 76.9144 25.3398 82.7214V205.828C25.3398 211.635 26.7421 215.987 29.5469 218.882Z" fill="#149E53"/>
</svg>
