<svg width="27" height="24" viewBox="0 0 27 24" fill="none" xmlns="http://www.w3.org/2000/svg">
<path d="M3.98565 24.0088H22.2541C24.9078 24.0088 26.25 22.6812 26.25 20.0769V3.9407C26.25 1.33645 24.9078 0.00878906 22.2541 0.00878906H3.98565C1.34221 0.00878906 0 1.32623 0 3.9407V20.0769C0 22.6914 1.34221 24.0088 3.98565 24.0088ZM3.84221 22.2011C2.53074 22.2011 1.81352 21.5067 1.81352 20.1586V7.97477C1.81352 6.61645 2.53074 5.93219 3.84221 5.93219H22.3873C23.6885 5.93219 24.4262 6.61645 24.4262 7.97477V20.1586C24.4262 21.5067 23.6885 22.2011 22.3873 22.2011H3.84221ZM10.5123 10.6301H11.291C11.7316 10.6301 11.8545 10.5075 11.8545 10.0786V9.31264C11.8545 8.88366 11.7316 8.77135 11.291 8.77135H10.5123C10.082 8.77135 9.95902 8.88366 9.95902 9.31264V10.0786C9.95902 10.5075 10.082 10.6301 10.5123 10.6301ZM14.9693 10.6301H15.7479C16.1782 10.6301 16.3012 10.5075 16.3012 10.0786V9.31264C16.3012 8.88366 16.1782 8.77135 15.7479 8.77135H14.9693C14.5287 8.77135 14.4057 8.88366 14.4057 9.31264V10.0786C14.4057 10.5075 14.5287 10.6301 14.9693 10.6301ZM19.416 10.6301H20.1947C20.625 10.6301 20.7582 10.5075 20.7582 10.0786V9.31264C20.7582 8.88366 20.625 8.77135 20.1947 8.77135H19.416C18.9856 8.77135 18.8524 8.88366 18.8524 9.31264V10.0786C18.8524 10.5075 18.9856 10.6301 19.416 10.6301ZM6.06557 14.9909H6.84427C7.27459 14.9909 7.40778 14.8786 7.40778 14.4497V13.6735C7.40778 13.2547 7.27459 13.1322 6.84427 13.1322H6.06557C5.63525 13.1322 5.50206 13.2547 5.50206 13.6735V14.4497C5.50206 14.8786 5.63525 14.9909 6.06557 14.9909ZM10.5123 14.9909H11.291C11.7316 14.9909 11.8545 14.8786 11.8545 14.4497V13.6735C11.8545 13.2547 11.7316 13.1322 11.291 13.1322H10.5123C10.082 13.1322 9.95902 13.2547 9.95902 13.6735V14.4497C9.95902 14.8786 10.082 14.9909 10.5123 14.9909ZM14.9693 14.9909H15.7479C16.1782 14.9909 16.3012 14.8786 16.3012 14.4497V13.6735C16.3012 13.2547 16.1782 13.1322 15.7479 13.1322H14.9693C14.5287 13.1322 14.4057 13.2547 14.4057 13.6735V14.4497C14.4057 14.8786 14.5287 14.9909 14.9693 14.9909ZM19.416 14.9909H20.1947C20.625 14.9909 20.7582 14.8786 20.7582 14.4497V13.6735C20.7582 13.2547 20.625 13.1322 20.1947 13.1322H19.416C18.9856 13.1322 18.8524 13.2547 18.8524 13.6735V14.4497C18.8524 14.8786 18.9856 14.9909 19.416 14.9909ZM6.06557 19.362H6.84427C7.27459 19.362 7.40778 19.2497 7.40778 18.8207V18.0446C7.40778 17.6156 7.27459 17.5033 6.84427 17.5033H6.06557C5.63525 17.5033 5.50206 17.6156 5.50206 18.0446V18.8207C5.50206 19.2497 5.63525 19.362 6.06557 19.362ZM10.5123 19.362H11.291C11.7316 19.362 11.8545 19.2497 11.8545 18.8207V18.0446C11.8545 17.6156 11.7316 17.5033 11.291 17.5033H10.5123C10.082 17.5033 9.95902 17.6156 9.95902 18.0446V18.8207C9.95902 19.2497 10.082 19.362 10.5123 19.362ZM14.9693 19.362H15.7479C16.1782 19.362 16.3012 19.2497 16.3012 18.8207V18.0446C16.3012 17.6156 16.1782 17.5033 15.7479 17.5033H14.9693C14.5287 17.5033 14.4057 17.6156 14.4057 18.0446V18.8207C14.4057 19.2497 14.5287 19.362 14.9693 19.362Z" fill="#676767"/>
</svg>
