<svg width="105" height="105" viewBox="0 0 105 105" fill="none" xmlns="http://www.w3.org/2000/svg">
<g clip-path="url(#clip0_725_71)">
<path d="M80.5599 87.0411L86.5622 81.4755L59.173 54.4716L93.3233 34.9292L89.288 28.0145L55.8656 47.0953V7.96745H47.8697V53.0814C47.8697 54.5886 48.2798 55.5101 49.2776 56.4813L80.5599 87.0411ZM52.0022 104.031C80.5121 104.031 104.031 80.5121 104.031 52.0288C104.031 23.5189 80.4854 0 51.9631 0C23.4798 0 0 23.5189 0 52.0288C0 80.5121 23.5189 104.031 52.0022 104.031ZM52.0022 93.8711C28.8304 93.8711 10.1865 75.2005 10.1865 52.0288C10.1865 28.8304 28.7914 10.1865 51.9631 10.1865C75.1615 10.1865 93.8445 28.8304 93.8445 52.0288C93.8445 75.2005 75.2005 93.8711 52.0022 93.8711Z" fill="#353535"/>
</g>
<defs>
<clipPath id="clip0_725_71">
<rect width="104.031" height="104.072" fill="white"/>
</clipPath>
</defs>
</svg>
