<svg width="26" height="24" viewBox="0 0 26 24" fill="none" xmlns="http://www.w3.org/2000/svg">
<g clip-path="url(#clip0_201_30)">
<path d="M17.2978 1.95948C16.9953 2.35451 16.7578 2.79973 16.5987 3.27963C15.4634 2.93847 14.2231 2.75606 12.9225 2.75606C7.18901 2.75606 2.62662 6.30087 2.62662 10.6755C2.62662 13.5436 4.57033 16.0411 7.86402 17.5557C8.42519 17.8135 8.49023 18.2244 8.23815 18.6835C7.86402 19.4167 7.02637 20.4721 6.4652 21.1488C6.40828 21.2213 6.43268 21.2697 6.514 21.2455C7.44926 20.9474 9.36045 19.8678 10.7674 18.9253C11.1171 18.6674 11.4261 18.5546 11.8084 18.5546C12.2557 18.5788 12.6297 18.5949 12.9225 18.5949C18.656 18.5949 23.2184 15.0421 23.2184 10.6755C23.2184 10.1698 23.1575 9.67518 23.0345 9.19752C23.5146 8.9966 23.9559 8.71998 24.3402 8.37993C24.5844 9.11139 24.7067 9.88184 24.7067 10.6755C24.7067 16.2586 18.9407 20.3512 11.8165 20.0129C9.71825 21.4388 6.96945 22.7198 5.62755 22.7198C4.63537 22.7198 4.34261 21.9142 4.87938 21.2294C5.34291 20.6412 6.1806 19.5134 6.66041 18.6111C3.34229 17.0723 1.14648 14.0672 1.14648 10.6755C1.14648 5.48715 6.37576 1.28979 12.9225 1.28979C14.4739 1.28979 15.9511 1.52492 17.2978 1.95948Z" fill="#373836"/>
<path d="M21.177 8.2825C23.1045 8.2825 24.7066 6.70346 24.7066 4.78601C24.7066 2.8686 23.1045 1.28955 21.177 1.28955C19.2414 1.28955 17.6475 2.8686 17.6475 4.78601C17.6475 6.70346 19.2414 8.2825 21.177 8.2825Z" fill="#373836"/>
</g>
<defs>
<clipPath id="clip0_201_30">
<rect width="26" height="24" fill="white" transform="translate(0 0.00878906)"/>
</clipPath>
</defs>
</svg>
