<svg width="258" height="240" viewBox="0 0 258 240" fill="none" xmlns="http://www.w3.org/2000/svg">
<path d="M171.793 20.1971C167.968 25.5863 165.274 31.817 164.059 38.5457C153.183 35.1689 141.256 33.3429 128.729 33.3429C75.6917 33.3429 33.3951 66.1062 33.3951 106.503C33.3951 132.777 51.1536 155.756 81.1743 169.833C86.9499 172.565 88.0796 177.054 85.253 182.248C81.419 189.595 73.9566 199.163 69.209 204.991C68.2786 206.199 68.7542 206.832 70.1112 206.357C78.7664 203.289 96.8533 192.314 109.385 183.382C113.135 180.479 116.182 179.401 120.118 179.401C123.592 179.559 126.496 179.664 128.729 179.664C181.79 179.664 224.086 146.824 224.086 106.503C224.086 101.754 223.502 97.1093 222.336 92.6241C229.017 90.9008 235.117 87.6831 240.299 83.3825C242.76 90.7405 243.996 98.5015 243.996 106.503C243.996 160.697 189.99 201.019 120.684 199.157C99.579 213.905 72.3654 226.462 58.8829 226.462C47.0457 226.462 42.5128 215.877 49.0609 207.279C53.3012 201.758 60.3965 191.399 64.6193 183.563C33.6089 168.128 13.5381 138.979 13.5381 106.503C13.5381 55.0043 64.7401 13.4857 128.729 13.4857C144 13.4857 158.541 15.8449 171.793 20.1971Z" fill="#149E53"/>
<path d="M210.373 80.7078C228.736 80.7078 243.996 65.5246 243.996 47.0844C243.996 28.6689 228.736 13.4857 210.373 13.4857C191.958 13.4857 176.774 28.6689 176.774 47.0844C176.774 65.5246 191.958 80.7078 210.373 80.7078Z" fill="#149E53"/>
</svg>
