<svg width="33" height="20" viewBox="0 0 33 20" fill="none" xmlns="http://www.w3.org/2000/svg">
<g clip-path="url(#clip0_601_383)">
<path d="M0.627473 15.1889C0.227233 15.5983 0 16.1128 0 16.707C0 17.928 0.96045 18.8976 2.1723 18.8976C2.77038 18.8976 3.33581 18.6625 3.7491 18.2159L17.1236 4.36403H15.5072L28.8438 18.2159C29.2669 18.6671 29.8421 18.8976 30.4258 18.8976C31.6331 18.8976 32.5981 17.928 32.5981 16.707C32.5981 16.1037 32.3852 15.599 31.9661 15.1889L18.0512 0.794593C17.5399 0.273581 16.9739 0.00913743 16.3013 0C15.638 0 15.0725 0.259214 14.5515 0.794593L0.627473 15.1889Z" fill="#149E53"/>
</g>
<defs>
<clipPath id="clip0_601_383">
<rect width="32.5981" height="20" fill="white"/>
</clipPath>
</defs>
</svg>
