<svg width="33" height="21" viewBox="0 0 33 21" fill="none" xmlns="http://www.w3.org/2000/svg">
<g clip-path="url(#clip0_601_387)">
<path d="M32.0017 5.18783C32.4019 4.77846 32.6292 4.26394 32.6292 3.66979C32.6292 2.44879 31.6687 1.47919 30.4569 1.47919C29.8588 1.47919 29.2933 1.71425 28.8801 2.16084L15.5056 16.0127H17.122L3.78538 2.16084C3.36229 1.70969 2.78705 1.47919 2.20334 1.47919C0.996063 1.47919 0.0310201 2.44879 0.0310201 3.66979C0.0310201 4.2731 0.243904 4.7778 0.663091 5.18783L14.578 19.5822C15.0892 20.1032 15.6553 20.3676 16.3278 20.3768C16.9912 20.3768 17.5566 20.1176 18.0776 19.5822L32.0017 5.18783Z" fill="#149E53"/>
</g>
<defs>
<clipPath id="clip0_601_387">
<rect width="32.5981" height="20" fill="white" transform="matrix(-1 0 0 -1 32.6292 20.3768)"/>
</clipPath>
</defs>
</svg>
