<svg width="34" height="24" viewBox="0 0 34 24" fill="none" xmlns="http://www.w3.org/2000/svg">
<path fill-rule="evenodd" clip-rule="evenodd" d="M25.7021 11.1707C24.9075 11.7193 24.027 11.9936 23.0607 11.9936C22.0944 11.9936 21.2139 11.7214 20.4193 11.1771C19.6247 10.6327 18.9938 9.90113 18.5266 8.98247C18.0594 8.06381 17.8218 7.05158 17.8138 5.94578C17.8138 4.84849 18.0494 3.85115 18.5206 2.95375C18.9918 2.05636 19.6247 1.33972 20.4193 0.803829C21.2139 0.267943 22.0944 0 23.0607 0C24.027 0 24.9075 0.265816 25.7021 0.797449C26.4968 1.32908 27.1297 2.04147 27.6009 2.93461C28.072 3.82776 28.3076 4.82297 28.3076 5.92026C28.3076 7.03457 28.072 8.05105 27.6009 8.96971C27.1297 9.88837 26.4968 10.622 25.7021 11.1707ZM15.5962 24.0001H30.5224C32.5669 24.0001 33.5891 23.2643 33.5891 21.7927C33.5891 20.9166 33.3435 20.0022 32.8524 19.0495C32.3612 18.0968 31.6544 17.2079 30.732 16.3828C29.8096 15.5577 28.7016 14.89 27.4078 14.3796C26.114 13.8693 24.6645 13.6141 23.0593 13.6141C21.4541 13.6141 20.0026 13.8693 18.7049 14.3796C17.4071 14.89 16.299 15.5577 15.3806 16.3828C14.4622 17.2079 13.7554 18.0968 13.2603 19.0495C12.7651 20.0022 12.5176 20.9166 12.5176 21.7927C12.5176 23.2643 13.5438 24.0001 15.5962 24.0001ZM15.226 21.7673C15.0823 21.7673 14.9805 21.7418 14.9206 21.6907C14.8607 21.6397 14.8307 21.5546 14.8307 21.4355C14.8307 20.9507 15.0124 20.3914 15.3758 19.7577C15.7392 19.124 16.2702 18.5094 16.969 17.914C17.6678 17.3186 18.5283 16.8252 19.5506 16.4339C20.5728 16.0426 21.7428 15.847 23.0605 15.847C24.3782 15.847 25.5462 16.0426 26.5644 16.4339C27.5827 16.8252 28.4432 17.3186 29.1459 17.914C29.8487 18.5094 30.3798 19.124 30.7392 19.7577C31.0986 20.3914 31.2783 20.9507 31.2783 21.4355C31.2783 21.5546 31.2483 21.6397 31.1884 21.6907C31.1285 21.7418 31.0307 21.7673 30.8949 21.7673H15.226ZM23.0599 9.74807C22.5089 9.74807 22.0018 9.58008 21.5386 9.24409C21.0754 8.90809 20.704 8.45089 20.4245 7.87247C20.145 7.29406 20.0052 6.64759 20.0052 5.93308C20.0052 5.24408 20.145 4.62101 20.4245 4.06385C20.704 3.5067 21.0754 3.06226 21.5386 2.73052C22.0018 2.39878 22.5089 2.23291 23.0599 2.23291C23.619 2.23291 24.1301 2.39453 24.5933 2.71776C25.0565 3.04099 25.4258 3.48118 25.7013 4.03834C25.9769 4.59549 26.1146 5.22281 26.1146 5.92032C26.1146 6.62632 25.9749 7.27066 25.6954 7.85333C25.4158 8.436 25.0465 8.89746 24.5873 9.23771C24.1281 9.57795 23.619 9.74807 23.0599 9.74807ZM11.8834 24H2.57554C1.72102 24 1.07813 23.8065 0.64688 23.4194C0.215627 23.0324 0 22.4561 0 21.6906C0 20.6273 0.237589 19.6129 0.712766 18.6475C1.18794 17.6821 1.84481 16.8187 2.68335 16.0574C3.5219 15.2961 4.49621 14.6964 5.60629 14.2583C6.71637 13.8203 7.90232 13.6012 9.16413 13.6012C9.78705 13.6012 10.406 13.6587 11.0209 13.7735C11.6359 13.8883 12.2328 14.0606 12.8118 14.2902C13.3908 14.5199 13.9359 14.8006 14.447 15.1323C14.1116 15.362 13.8161 15.6108 13.5605 15.8788C13.305 16.1467 13.0774 16.438 12.8777 16.7528C12.5343 16.5486 12.1609 16.3742 11.7576 16.2296C11.3543 16.085 10.9331 15.9744 10.4938 15.8979C10.0546 15.8213 9.61136 15.7831 9.16413 15.7831C8.21378 15.7831 7.31733 15.9404 6.47479 16.2551C5.63225 16.5699 4.88554 16.9994 4.23467 17.5438C3.58379 18.0882 3.07468 18.6985 2.70731 19.3748C2.33995 20.051 2.15627 20.7549 2.15627 21.4864C2.15627 21.5885 2.18022 21.6672 2.22814 21.7225C2.27606 21.7778 2.35991 21.8054 2.47971 21.8054H10.8772C10.8452 22.0946 10.8712 22.3796 10.955 22.6603C11.0389 22.941 11.1607 23.2004 11.3204 23.4386C11.4801 23.6767 11.6678 23.8639 11.8834 24ZM9.1763 12.2742C10.0149 12.2742 10.7795 12.0339 11.4703 11.5533C12.1611 11.0727 12.7142 10.4305 13.1295 9.62668C13.5447 8.82285 13.7524 7.92759 13.7524 6.94088C13.7524 5.98819 13.5467 5.11844 13.1354 4.33162C12.7242 3.5448 12.1731 2.91748 11.4823 2.44964C10.7915 1.9818 10.0228 1.74788 9.1763 1.74788C8.33776 1.74788 7.57108 1.98393 6.87629 2.45602C6.18149 2.92811 5.62845 3.55969 5.21716 4.35076C4.80587 5.14183 4.60422 6.01371 4.61221 6.96639C4.61221 7.9446 4.81785 8.83349 5.22914 9.63306C5.64043 10.4326 6.19147 11.0727 6.88228 11.5533C7.57308 12.0339 8.33776 12.2742 9.1763 12.2742ZM7.93634 9.65228C8.31568 9.92873 8.72897 10.067 9.17619 10.067C9.6314 10.067 10.0507 9.92873 10.434 9.65228C10.8174 9.37583 11.1228 9.00156 11.3504 8.52947C11.578 8.05738 11.6918 7.52788 11.6918 6.94096C11.6918 6.37955 11.578 5.87344 11.3504 5.42261C11.1228 4.97179 10.8193 4.6124 10.44 4.34446C10.0607 4.07652 9.63939 3.94255 9.17619 3.94255C8.72098 3.94255 8.3037 4.07864 7.92436 4.35084C7.54502 4.62304 7.24154 4.9888 7.01394 5.44813C6.78633 5.90746 6.67253 6.41358 6.67253 6.96647C6.67253 7.53638 6.78833 8.05738 7.01993 8.52947C7.25152 9.00156 7.55699 9.37583 7.93634 9.65228Z" fill="#149E53"/>
</svg>
