<svg width="111" height="97" viewBox="0 0 111 97" fill="none" xmlns="http://www.w3.org/2000/svg">
<g clip-path="url(#clip0_727_100)">
<path d="M108.662 16.2875L101.363 45.7635C100.539 48.746 97.5403 49.9923 95.3939 47.8726L87.3378 39.7649L65.9722 61.2725C63.602 63.6569 61.2957 64.7595 58.8082 64.7595C56.3084 64.7595 53.8991 63.6694 51.6052 61.2477L33.4441 42.5807C32.906 42.0302 32.3698 41.7674 31.8708 41.7674C31.3718 41.7674 30.8231 42.0426 30.2975 42.5807L9.87109 63.4893V49.8656L24.7193 34.8422C27.1552 32.369 29.3958 31.3694 31.8832 31.3694C34.3831 31.3694 36.7533 32.4205 39.0596 34.8422L57.2474 53.5482C57.7854 54.0987 58.3217 54.3473 58.8207 54.3473C59.3196 54.3473 59.8683 54.0721 60.3939 53.5607L80.5525 32.9921L72.6223 25.0104C70.4636 22.8783 71.7098 19.9172 74.7171 19.1201L104.169 11.8192C106.931 11.1002 109.381 13.4719 108.662 16.2875Z" fill="#474747"/>
<path d="M0 92.2607C0 94.7836 1.68132 96.4649 4.21663 96.4649H105.729C108.498 96.4649 110.733 94.3967 110.733 91.5493C110.733 88.6894 108.498 86.6212 105.729 86.6212H11.1843C10.2326 86.6212 9.87041 86.259 9.87041 85.3073V5.07571C9.87041 2.33299 7.80221 0.0712891 4.95473 0.0712891C2.09483 0.0712891 0 2.33299 0 5.07571V92.2607Z" fill="#474747"/>
</g>
<defs>
<clipPath id="clip0_727_100">
<rect width="110.994" height="96.4649" fill="white"/>
</clipPath>
</defs>
</svg>
