<svg width="70" height="120" viewBox="0 0 70 120" fill="none" xmlns="http://www.w3.org/2000/svg">
<path d="M34.9192 107.678C54.7419 107.678 69.9843 97.5889 69.9843 80.4043C69.9843 66.8247 61.329 59.0777 42.4196 54.6713L32.3041 52.3422C20.3189 49.5927 14.6493 45.0956 14.6493 37.7065C14.6493 29.7111 22.3857 23.3521 34.9548 23.3521C45.4632 23.3521 52.7981 28.2396 55.5455 36.7325C56.9038 39.7555 58.966 41.2567 62.0396 41.2567C65.8393 41.2567 68.0327 39.0238 68.0327 35.6218C68.0327 34.5747 67.8563 33.4976 67.5448 32.3642C64.3602 20.6852 51.8238 12.3226 34.8497 12.3226C15.6105 12.3226 1.56558 23.0009 1.56558 38.7271C1.56558 51.9649 10.3502 59.8413 28.327 64.0696L38.4143 66.3987C51.6117 69.5085 56.9268 73.5421 56.9268 81.6125C56.9268 91.0776 48.5712 96.6764 35.0937 96.6764C22.9693 96.6764 15.1558 91.4961 12.8042 82.5789C11.5753 79.5934 9.53755 77.9346 6.4415 77.9346C2.47115 77.9346 0.262695 80.4078 0.262695 84.0198C0.262695 85.0162 0.452204 86.1327 0.816191 87.2755C4.0722 99.3659 17.249 107.678 34.9192 107.678ZM35.0016 120C36.9684 120 38.4173 118.538 38.4173 116.561V3.83985C38.4173 1.8337 36.9684 0.371704 35.0016 0.371704C33.0761 0.371704 31.6272 1.8337 31.6272 3.83985V116.561C31.6272 118.538 33.0761 120 35.0016 120Z" fill="#373836"/>
</svg>
