<svg width="340" height="240" viewBox="0 0 340 240" fill="none" xmlns="http://www.w3.org/2000/svg">
<g clip-path="url(#clip0_590_119)">
<path d="M62.7108 192.155H98.0978C106.609 192.155 112.319 186.532 112.319 178.594V152.136C112.319 144.199 106.609 138.576 98.0978 138.576H62.7108C54.2 138.576 48.4889 144.199 48.4889 152.136V178.594C48.4889 186.532 54.2 192.155 62.7108 192.155ZM10.3025 86.1002H327.216V54.1296H10.3025V86.1002ZM43.5616 240H293.509C322.513 240 337.183 225.558 337.183 197.446V42.8848C337.183 14.7727 322.513 0.330811 293.509 0.330811H43.5616C14.6698 0.330811 0 14.6625 0 42.8848V197.446C0 225.669 14.6698 240 43.5616 240ZM44.0095 220.377C28.3319 220.377 19.8211 212.219 19.8211 196.454V43.877C19.8211 28.002 28.3319 19.8439 44.0095 19.8439H293.173C308.515 19.8439 317.249 28.002 317.249 43.877V196.454C317.249 212.219 308.515 220.377 293.173 220.377H44.0095Z" fill="#149E53"/>
</g>
<defs>
<clipPath id="clip0_590_119">
<rect width="339.31" height="240" fill="white"/>
</clipPath>
</defs>
</svg>
