<svg width="34" height="24" viewBox="0 0 34 24" fill="none" xmlns="http://www.w3.org/2000/svg">
<g clip-path="url(#clip0_201_65)">
<path d="M6.27108 19.2241H9.80978C10.6609 19.2241 11.2319 18.6619 11.2319 17.8681V15.2223C11.2319 14.4285 10.6609 13.8663 9.80978 13.8663H6.27108C5.42 13.8663 4.84889 14.4285 4.84889 15.2223V17.8681C4.84889 18.6619 5.42 19.2241 6.27108 19.2241ZM1.03025 8.61869H32.7216V5.42163H1.03025V8.61869ZM4.35616 24.0087H29.3509C32.2513 24.0087 33.7183 22.5645 33.7183 19.7533V4.29715C33.7183 1.48594 32.2513 0.041748 29.3509 0.041748H4.35616C1.46698 0.041748 0 1.47492 0 4.29715V19.7533C0 22.5755 1.46698 24.0087 4.35616 24.0087ZM4.40095 22.0464C2.83319 22.0464 1.98211 21.2306 1.98211 19.6541V4.39637C1.98211 2.80886 2.83319 1.99306 4.40095 1.99306H29.3173C30.8515 1.99306 31.7249 2.80886 31.7249 4.39637V19.6541C31.7249 21.2306 30.8515 22.0464 29.3173 22.0464H4.40095Z" fill="#676767"/>
</g>
<defs>
<clipPath id="clip0_201_65">
<rect width="33.931" height="24" fill="white" transform="translate(0 0.00878906)"/>
</clipPath>
</defs>
</svg>
