<svg width="250" height="250" viewBox="0 0 250 250" fill="none" xmlns="http://www.w3.org/2000/svg">
<g clip-path="url(#clip0_576_85)">
<path d="M73.4176 96.9491V153.079L48.5113 153.143C21.7456 153.208 0 174.483 0 201.318C0 228.158 21.7133 250 48.5438 250C75.2128 250 97.0229 228.126 97.0229 201.318V176.605H152.94V201.318C152.94 228.126 174.718 250 201.419 250C228.25 250 249.963 228.158 249.963 201.318C249.963 174.483 228.218 153.208 201.452 153.143L176.546 153.079V96.9491L201.452 96.9166C228.218 96.8522 249.963 75.6137 249.963 48.7096C249.963 21.9391 228.25 0.0598145 201.419 0.0598145C174.718 0.0598145 152.94 22.0036 152.94 48.7096V73.4545H97.0229V48.7096C97.0229 22.0036 75.2128 0.0598145 48.5438 0.0598145C21.7133 0.0598145 0 21.9391 0 48.7096C0 75.6137 21.7456 96.8522 48.5113 96.9166L73.4176 96.9491ZM48.9631 73.6897C35.0624 73.6897 23.7987 62.4906 23.7987 48.7418C23.7987 35.0946 34.9655 23.9277 48.5438 23.9277C62.0573 23.9277 73.321 35.159 73.321 49.1934V73.6897H48.9631ZM201 73.6897H176.642V49.1934C176.642 35.159 187.906 23.9277 201.419 23.9277C214.998 23.9277 226.164 35.0946 226.164 48.7418C226.164 62.4906 214.901 73.6897 201 73.6897ZM97.0551 153.249V96.7785H152.908V153.249H97.0551ZM48.9631 176.269H73.321V200.797C73.321 214.869 62.0573 226.1 48.5438 226.1C34.9655 226.1 23.7987 214.933 23.7987 201.217C23.7987 187.468 35.0624 176.269 48.9631 176.269ZM201 176.269C214.901 176.269 226.164 187.468 226.164 201.217C226.164 214.933 214.998 226.1 201.419 226.1C187.906 226.1 176.642 214.869 176.642 200.797V176.269H201Z" fill="#149E53"/>
</g>
<defs>
<clipPath id="clip0_576_85">
<rect width="249.963" height="250" fill="white"/>
</clipPath>
</defs>
</svg>
