<svg width="118" height="120" viewBox="0 0 118 120" fill="none" xmlns="http://www.w3.org/2000/svg">
<path d="M22.4836 111.02C24.9123 112.848 27.9164 112.299 31.3418 109.785L58.6223 89.771L85.8754 109.785C89.3411 112.299 92.3177 112.848 94.7741 111.02C97.1494 109.218 97.6716 106.216 96.3055 102.239L85.5576 70.1905L113.053 50.4454C116.493 47.9963 117.907 45.2863 116.947 42.4034C116.001 39.5611 113.29 38.1583 109.048 38.1987L75.3105 38.4267L65.0463 6.19051C63.7206 2.14926 61.6247 0 58.6223 0C55.6053 0 53.5094 2.14926 52.2113 6.19051L41.9195 38.4267L8.15706 38.1987C3.93927 38.1583 1.25683 39.5611 0.309997 42.3906C-0.690159 45.2863 0.764122 47.9963 4.17657 50.4454L31.6723 70.1905L20.9245 102.239C19.586 106.216 20.1081 109.218 22.4836 111.02ZM31.5857 98.5427C31.4771 98.4342 31.4919 98.3661 31.5728 98.0682L41.4254 70.1189C42.3557 67.4862 42.1073 65.9637 39.6384 64.3293L15.2107 47.5421C14.9661 47.406 14.8575 47.2846 14.9256 47.1485C14.9808 47.0125 15.1021 46.9995 15.4276 46.9995L45.0264 47.6632C47.8043 47.7294 49.1484 46.9074 49.9352 44.2086L58.3097 15.8071C58.4182 15.4944 58.4863 15.3859 58.6223 15.3859C58.7713 15.3859 58.8393 15.4944 58.9203 15.8071L67.2947 44.2086C68.0816 46.9074 69.4257 47.7294 72.2164 47.6632L101.856 46.9995C102.141 46.9995 102.29 47.0125 102.317 47.1485C102.385 47.2846 102.277 47.393 102.032 47.5421L77.6192 64.3551C75.1355 65.9766 74.8743 67.4862 75.8046 70.1189L85.6572 98.0682C85.738 98.3661 85.7676 98.4342 85.6719 98.5427C85.5634 98.6788 85.4274 98.5703 85.1828 98.4342L61.7166 80.3525C59.4847 78.6391 57.7453 78.6391 55.541 80.3525L32.0472 98.4342C31.8303 98.5703 31.6942 98.6788 31.5857 98.5427Z" fill="#373836"/>
</svg>
