<svg width="114" height="116" viewBox="0 0 114 116" fill="none" xmlns="http://www.w3.org/2000/svg">
<g clip-path="url(#clip0_727_75)">
<path d="M21.7107 107.204C24.0559 108.969 26.9568 108.439 30.2644 106.011L56.6072 86.6851L82.9234 106.011C86.27 108.439 89.1443 108.969 91.5162 107.204C93.8099 105.464 94.3141 102.565 92.995 98.7247L82.6166 67.7777L109.167 48.7113C112.489 46.3464 113.854 43.7296 112.927 40.9458C112.013 38.2012 109.396 36.8466 105.299 36.8856L72.7217 37.1058L62.8103 5.97771C61.5302 2.07538 59.5063 0 56.6072 0C53.6939 0 51.67 2.07538 50.4165 5.97771L40.4785 37.1058L7.87666 36.8856C3.80386 36.8466 1.21363 38.2012 0.299341 40.9334C-0.666435 43.7296 0.737855 46.3464 4.033 48.7113L30.5836 67.7777L20.2052 98.7247C18.9127 102.565 19.4169 105.464 21.7107 107.204ZM30.4999 95.1553C30.3951 95.0505 30.4094 94.9848 30.4875 94.6971L40.0014 67.7086C40.8997 65.1664 40.6599 63.6962 38.2758 62.118L14.6878 45.9078C14.4516 45.7764 14.3468 45.6592 14.4125 45.5278C14.4658 45.3964 14.583 45.3839 14.8973 45.3839L43.4786 46.0248C46.161 46.0887 47.4589 45.295 48.2187 42.6889L56.3053 15.2637C56.4101 14.9618 56.4758 14.857 56.6072 14.857C56.751 14.857 56.8167 14.9618 56.8949 15.2637L64.9814 42.6889C65.7413 45.295 67.0392 46.0887 69.734 46.0248L98.3544 45.3839C98.6296 45.3839 98.7734 45.3964 98.8001 45.5278C98.8658 45.6592 98.761 45.7639 98.5248 45.9078L74.951 62.1429C72.5527 63.7087 72.3005 65.1664 73.1988 67.7086L82.7127 94.6971C82.7908 94.9848 82.8193 95.0505 82.7269 95.1553C82.6222 95.2867 82.4908 95.1819 82.2546 95.0505L59.5951 77.5904C57.4399 75.9359 55.7603 75.9359 53.6318 77.5904L30.9456 95.0505C30.7361 95.1819 30.6047 95.2867 30.4999 95.1553Z" fill="#149e53"/>
</g>
<defs>
<clipPath id="clip0_727_75">
<rect width="113.214" height="115.875" fill="white"/>
</clipPath>
</defs>
</svg>
