<svg width="156" height="135" viewBox="0 0 156 135" fill="none" xmlns="http://www.w3.org/2000/svg">
<g clip-path="url(#clip0_727_79)">
<path d="M67.1415 79.1821C64.8159 81.1104 62.747 83.1927 60.9555 85.376C56.4732 83.1519 51.2091 81.8362 45.6318 81.8362C29.5109 81.8362 15.9716 92.8453 15.9716 104.48C15.9716 105.551 16.4742 106.048 17.6995 106.048H52.8269C52.8635 109.127 53.6396 111.997 55.2673 114.404H17.7799C10.6799 114.404 7.12891 111.301 7.12891 105.316C7.12891 88.8794 24.0605 73.5313 45.6318 73.5313C53.6572 73.5313 61.0398 75.6585 67.1415 79.1821ZM37.7739 39.1992C36.0031 41.3562 34.9137 44.2341 34.9137 47.3735C34.9137 54.4158 39.8004 59.9045 45.6585 59.9045C48.9828 59.9045 51.9795 58.1676 53.9652 55.3827L59.9085 61.323C56.4261 65.6133 51.3406 68.2876 45.6585 68.2876C35.0869 68.2876 26.5306 59.0139 26.5306 47.3735C26.5306 41.9552 28.5594 36.9706 31.8546 33.2827L37.7739 39.1992ZM59.2139 32.8787L59.0608 32.7256C59.116 32.772 59.1656 32.8247 59.2139 32.8787Z" fill="#474747"/>
<path d="M84.9139 86.315C74.8514 91.1221 69.396 99.07 69.396 104.327C69.396 105.423 69.9376 105.893 71.4293 105.893H104.501L113.004 114.392H72.5112C64.067 114.392 59.9727 111.635 59.9727 105.754C59.9727 96.9696 66.8454 86.5346 78.5821 79.9863L84.9139 86.315ZM148.37 105.754C148.37 110.451 145.758 113.156 140.394 114.048L132.238 105.893H136.914C138.418 105.893 138.947 105.423 138.947 104.327C138.947 96.8914 128.033 84.0724 108.67 82.3278L100.086 73.7448C101.409 73.6213 102.774 73.5721 104.164 73.5721C130.937 73.5721 148.37 91.7579 148.37 105.754ZM126.131 43.7585C126.131 56.9738 116.377 67.6023 104.218 67.6023C92.0465 67.6023 82.265 57.0005 82.265 43.8242C82.265 30.9461 92.1352 20.4385 104.218 20.4385C116.327 20.4385 126.131 30.8147 126.131 43.7585ZM91.092 43.8117C91.092 52.4557 97.0458 59.1038 104.218 59.1038C111.402 59.1038 117.304 52.3651 117.304 43.7585C117.304 35.411 111.391 28.9494 104.218 28.9494C97.0565 28.9494 91.092 35.5034 91.092 43.8117Z" fill="#474747"/>
<path d="M134.934 127.733C136.397 129.211 138.794 129.186 140.232 127.709C141.658 126.231 141.709 123.939 140.232 122.45L33.5491 15.7793C32.0595 14.3288 29.7159 14.3021 28.2387 15.7793C26.8006 17.2174 26.8006 19.6658 28.2387 21.0648L134.934 127.733Z" fill="#474747"/>
</g>
<defs>
<clipPath id="clip0_727_79">
<rect width="155.5" height="134.882" fill="white"/>
</clipPath>
</defs>
</svg>
