<svg width="122" height="120" viewBox="0 0 122 120" fill="none" xmlns="http://www.w3.org/2000/svg">
<path d="M63.658 75.2068C62.7746 75.1216 61.8483 75.0965 60.9051 75.0965C38.1123 75.0965 25.1235 89.7322 25.1235 97.9612C25.1235 99.0888 25.6535 99.5731 27.2162 99.5731H88.0372L96.6391 108.17C95.6607 108.271 94.6025 108.32 93.4678 108.32H28.3021C19.6393 108.32 15.3984 105.481 15.3984 99.43C15.3984 86.072 30.8285 69.0061 55.071 66.6242L63.658 75.2068ZM83.512 35.628C83.512 43.7607 79.9125 50.9413 74.327 55.3788L68.0389 49.0916C71.8705 46.3771 74.4279 41.4664 74.4279 35.628C74.4279 26.9095 68.3152 20.3875 60.9324 20.3875C55.4378 20.3875 50.6175 24.0931 48.5408 29.596L41.8594 22.9155C45.8466 16.1379 52.9205 11.6287 60.9324 11.6287C73.3944 11.6287 83.512 22.3072 83.512 35.628Z" fill="#373836"/>
<path d="M108.308 110.047C109.801 111.555 112.28 111.54 113.748 110.02C115.228 108.499 115.253 106.1 113.748 104.595L17.2032 8.07626C15.7104 6.57068 13.2711 6.54326 11.7381 8.07626C10.2709 9.51608 10.2709 12.0358 11.7381 13.4883L108.308 110.047Z" fill="#373836"/>
</svg>
