<svg width="55" height="55" viewBox="0 0 55 55" fill="none" xmlns="http://www.w3.org/2000/svg">
<g clip-path="url(#clip0_754_49)">
<path d="M0 27.4954C0 29.5258 1.68196 31.1813 3.70563 31.1813H23.799V51.262C23.799 53.2844 25.4636 54.9652 27.4872 54.9652C29.5364 54.9652 31.201 53.2844 31.201 51.262V31.1813H51.2944C53.3181 31.1813 55 29.5258 55 27.4954C55 25.4475 53.3181 23.7921 51.2944 23.7921H31.201V3.71139C31.201 1.6809 29.5364 0 27.4872 0C25.4636 0 23.799 1.6809 23.799 3.71139V23.7921H3.70563C1.68196 23.7921 0 25.4475 0 27.4954Z" fill="#474747"/>
</g>
<defs>
<clipPath id="clip0_754_49">
<rect width="55" height="55" fill="white"/>
</clipPath>
</defs>
</svg>
