<svg width="20" height="24" viewBox="0 0 20 24" fill="none" xmlns="http://www.w3.org/2000/svg">
<path d="M9.84615 24.0088C10.0606 24.0088 10.3683 23.9251 10.648 23.7577C17.4266 19.8988 19.6923 18.3737 19.6923 14.1614V5.01148C19.6923 3.73758 19.1888 3.32843 18.1165 2.88209C16.5128 2.24048 12.4289 0.743388 10.8252 0.194766C10.5082 0.0831836 10.1725 0.00878906 9.84615 0.00878906C9.51981 0.00878906 9.19347 0.10178 8.87648 0.194766C7.27274 0.696898 3.17949 2.24978 1.57576 2.88209C0.503498 3.30984 0 3.73758 0 5.01148V14.1614C0 18.3737 2.29371 19.8615 9.04428 23.7577C9.33334 23.9251 9.64102 24.0088 9.84615 24.0088ZM9.84615 22.1769C9.65033 22.1769 9.43589 22.0839 9.12821 21.8887C3.55245 18.4668 1.6317 17.4718 1.6317 13.8081V5.32766C1.6317 4.79762 1.73426 4.59304 2.14452 4.43498C3.82284 3.76547 7.62706 2.44505 9.30537 1.78484C9.51981 1.70116 9.70628 1.65467 9.84615 1.65467C9.98603 1.65467 10.1725 1.70116 10.3869 1.78484C12.0746 2.44505 15.8415 3.83056 17.5571 4.43498C17.958 4.58376 18.0606 4.79762 18.0606 5.32766V13.8081C18.0606 17.4718 16.1306 18.4482 10.5641 21.8887C10.2564 22.0839 10.042 22.1769 9.84615 22.1769Z" fill="#373836"/>
<path d="M5.53809 16.4806C5.53809 17.4255 5.93433 17.855 6.78201 17.855H12.9095C13.748 17.855 14.1535 17.4255 14.1535 16.4806V11.5175C14.1535 10.6203 13.7849 10.1908 13.0385 10.1527V8.61598C13.0385 6.40171 11.7486 4.93188 9.84118 4.93188C7.9338 4.93188 6.64383 6.40171 6.64383 8.61598V10.1527C5.89744 10.1908 5.53809 10.6203 5.53809 11.5175V16.4806ZM7.74952 10.1431V8.51102C7.74952 7.02208 8.58805 6.03902 9.84118 6.03902C11.1036 6.03902 11.942 7.02208 11.942 8.51102V10.1431H7.74952Z" fill="#373836"/>
</svg>
