<svg width="196" height="240" viewBox="0 0 196 240" fill="none" xmlns="http://www.w3.org/2000/svg">
<path d="M97.7935 240C100.026 240 103.182 239.11 106.013 237.525C172.414 201.305 195.215 184.842 195.215 143.621V56.7833C195.215 42.3694 190.063 37.0303 177.649 31.7884C164.06 26.2323 123.898 12.0899 110.651 7.65773C106.606 6.32592 101.87 5.46655 97.7935 5.46655C93.7452 5.46655 89.0702 6.50516 85.026 7.65773C71.7786 11.6703 31.5277 26.322 17.9668 31.7884C5.55283 36.908 0.400391 42.3694 0.400391 56.7833V143.621C0.400391 184.842 23.385 201.06 89.5742 237.525C92.466 239.11 95.6511 240 97.7935 240ZM97.7935 216.335C96.1966 216.335 94.5061 215.667 91.492 213.756C38.7594 181.235 21.8384 172.815 21.8384 139.817V60.2005C21.8384 55.3491 22.8526 53.4061 26.5391 51.9397C42.612 45.4877 76.9505 33.7604 90.8579 28.3953C93.8879 27.3325 95.9649 26.8273 97.7935 26.8273C99.6505 26.8273 101.728 27.3325 104.758 28.3953C118.698 33.7604 152.792 46.0011 169.138 51.9397C172.763 53.3166 173.777 55.3491 173.777 60.2005V139.817C173.777 173.1 155.969 182.196 104.124 213.756C101.11 215.638 99.4188 216.335 97.7935 216.335Z" fill="#149E53"/>
<path d="M56.4297 161.158C56.4297 170.114 60.397 174.232 68.7551 174.232H126.95C135.19 174.232 139.219 170.114 139.219 161.158V116.07C139.219 108.074 135.891 103.985 129.287 103.341V90.0536C129.287 69.093 116.542 55.0649 97.7935 55.0649C79.0445 55.0649 66.3567 69.093 66.3567 90.0536V103.313C59.6966 103.985 56.4297 108.074 56.4297 116.07V161.158ZM79.7029 103.081V89.0965C79.7029 76.371 86.8888 68.0244 97.7935 68.0244C108.816 68.0244 116.002 76.3424 116.002 89.0965V103.081H79.7029Z" fill="#149E53"/>
</svg>
