<svg width="32" height="24" viewBox="0 0 32 24" fill="none" xmlns="http://www.w3.org/2000/svg">
<g clip-path="url(#clip0_355_3)">
<path d="M0.185289 16.6126C-0.573667 18.5324 1.15123 19.4115 2.60014 18.3404C4.08848 17.1986 5.58669 16.0569 7.07502 14.8545L6.68078 14.5918C5.29096 16.5823 4.7193 18.2292 4.7193 19.5125C4.7193 22.3821 7.54814 23.5744 10.377 22.2002C11.0768 21.8466 10.8304 20.1794 9.57857 20.7452C7.66643 21.5535 6.26676 21.1494 6.26676 19.4317C6.26676 17.9464 7.30171 15.4708 9.72643 12.1768C10.377 11.2978 9.3223 10.1661 8.42538 11.1159C6.34564 13.1974 3.6548 15.2687 1.26951 17.2896L1.59478 17.5826L7.32144 3.21442C7.65654 2.35557 6.1781 1.60786 5.71482 2.74963L0.185289 16.6126Z" fill="#676767"/>
<path d="M11.8446 19.3104C11.6672 19.6337 12.022 19.9369 12.298 19.7954L14.1411 18.7648L12.8697 17.4614L11.8446 19.3104ZM13.4118 16.4711L15.1268 18.2292L15.8266 17.8352L30.8381 2.50711C31.4 1.93118 31.4 0.991483 30.8381 0.425648C30.2763 -0.140187 29.3695 -0.140187 28.8175 0.415544L13.806 15.7638L13.4118 16.4711Z" fill="#373836"/>
</g>
<defs>
<clipPath id="clip0_355_3">
<rect width="31.4483" height="24" fill="white"/>
</clipPath>
</defs>
</svg>
