<svg width="327" height="314" viewBox="0 0 327 314" fill="none" xmlns="http://www.w3.org/2000/svg">
<path d="M70.6602 160.703L89.1375 203.448C90.599 206.824 95.4532 206.876 96.9147 203.448L116.018 159.924C120.612 149.38 129.067 140.966 139.663 136.395L183.455 117.386C186.848 115.931 186.848 111.101 183.455 109.647L139.663 90.6371C129.067 86.0665 120.612 77.6524 116.018 67.1088L96.9147 23.532C95.4532 20.156 90.599 20.156 89.1375 23.532L70.0338 67.1088C65.4406 77.6524 56.9848 86.0665 46.3891 90.6371L2.54455 109.699C-0.848183 111.153 -0.848183 115.931 2.54455 117.438L47.172 137.071C57.7156 141.693 66.1191 150.159 70.7124 160.703H70.6602Z" fill="#149E53"/>
<path d="M142.518 57.818L169.152 69.6134C175.429 72.3715 180.474 77.477 183.172 83.8148L194.201 109.46C195.081 111.513 197.956 111.513 198.836 109.46L210.216 83.3454C212.974 77.0075 218.019 71.9608 224.355 69.2026L250.46 57.818C252.513 56.9377 252.513 54.0623 250.46 53.182L224.355 41.7974C218.019 39.0393 212.974 33.9925 210.216 27.6546L198.836 1.54044C197.956 -0.513481 195.081 -0.513481 194.201 1.54044L182.82 27.6546C180.063 33.9925 175.018 39.0393 168.682 41.7974L142.518 53.2407C140.523 54.1209 140.465 56.9964 142.518 57.8767V57.818Z" fill="#149E53"/>
<path d="M325.268 252.503L297.728 240.401C291.091 237.463 285.792 232.117 282.881 225.419L270.887 197.63C269.956 195.457 266.928 195.457 265.996 197.63L254.002 225.419C251.091 232.117 245.793 237.463 239.155 240.401L211.616 252.562C209.461 253.502 209.461 256.557 211.616 257.497L239.679 270.011C246.317 272.948 251.615 278.353 254.468 285.11L266.113 312.37C267.044 314.543 270.072 314.543 271.004 312.37L282.998 284.64C285.909 277.942 291.207 272.596 297.845 269.658L325.384 257.556C327.539 256.616 327.539 253.561 325.384 252.621L325.268 252.503Z" fill="#149E53"/>
<path d="M77.424 282.714C75.1961 285.997 79.6526 289.073 83.119 287.638L106.268 277.176L90.299 263.944L77.424 282.714ZM97.1077 253.892L118.648 271.739L127.438 267.739L315.977 112.143C323.034 106.296 323.034 96.7573 315.977 91.0134C308.922 85.2696 297.532 85.2696 290.599 90.9108L102.059 246.713L97.1077 253.892Z" fill="#149E53"/>
</svg>
