<svg width="38" height="24" viewBox="0 0 38 24" fill="none" xmlns="http://www.w3.org/2000/svg">
<g clip-path="url(#clip0_204_69)">
<path d="M7.43008 23.9773H22.9373C26.3984 23.9773 28.423 21.9783 28.423 18.514V5.46333C28.423 1.99906 26.3984 0 22.9373 0H7.43008C4.1047 0 1.94434 1.99906 1.94434 5.46333V18.514C1.94434 21.9783 3.98029 23.9773 7.43008 23.9773ZM7.79203 22.0918C5.31497 22.0918 3.94636 20.8083 3.94636 18.2073V5.78136C3.94636 3.16896 5.31497 1.88547 7.79203 1.88547H22.5754C25.0524 1.88547 26.421 3.16896 26.421 5.78136V18.2073C26.421 20.8083 25.0524 22.0918 22.5754 22.0918H7.79203ZM28.1177 8.08706V10.4496L35.0851 4.7364C35.2661 4.58874 35.4131 4.48651 35.5715 4.48651C35.7977 4.48651 35.9108 4.66825 35.9108 4.9522V19.0251C35.9108 19.3204 35.7977 19.4908 35.5715 19.4908C35.4131 19.4908 35.2661 19.3772 35.0851 19.2409L28.1177 13.5277V15.9016L34.1124 20.9333C34.6892 21.399 35.2887 21.717 35.8882 21.717C37.0645 21.717 37.845 20.8538 37.845 19.5589V4.42973C37.845 3.13488 37.0645 2.2603 35.8882 2.2603C35.2887 2.2603 34.6892 2.57832 34.1124 3.05538L28.1177 8.08706Z" fill="#676767"/>
<path d="M10.2361 17.9915C10.5189 17.9915 10.7224 17.9006 10.9034 17.719L17.2149 11.3469L19.4997 8.91626L19.2734 13.062V15.5154C19.2734 16.0038 19.6354 16.4014 20.1331 16.4014C20.6421 16.4014 21.0606 16.0266 21.0606 15.5154V7.20117C21.0606 6.5424 20.7326 6.21301 20.0652 6.21301H11.7518C11.2314 6.21301 10.8469 6.63324 10.8469 7.15575C10.8469 7.65553 11.2541 8.0076 11.7518 8.0076H14.2515L18.3912 7.78045L15.9367 10.0635L9.62531 16.4241C9.4104 16.6286 9.30859 16.8443 9.30859 17.1169C9.30859 17.6167 9.71577 17.9915 10.2361 17.9915Z" fill="#373836"/>
</g>
<defs>
<clipPath id="clip0_204_69">
<rect width="37.8462" height="24" fill="white"/>
</clipPath>
</defs>
</svg>
