<svg width="377" height="240" viewBox="0 0 377 240" fill="none" xmlns="http://www.w3.org/2000/svg">
<path d="M75.4968 239.814H225.529C262.127 239.814 282.956 219.247 282.956 183.5V56.2782C282.956 20.5665 262.127 0 225.529 0H75.4968C39.9822 0 18.0703 20.5665 18.0703 56.3134V184.734C18.0703 220.41 38.9745 239.814 75.4968 239.814ZM80.1719 214.645C57.5883 214.645 44.9867 202.578 44.9867 179.414V60.4746C44.9867 36.8126 57.5883 25.133 80.1719 25.133H220.854C243.438 25.133 256.074 37.2357 256.074 60.4746V179.414C256.074 202.578 243.261 214.645 220.784 214.645H80.1719ZM277.812 80.0861V109.24L344.719 55.0705C346.177 53.8762 347.369 53.0195 348.711 53.0195C350.539 53.0195 351.543 54.5112 351.543 56.7887V183.906C351.543 186.294 350.539 187.675 348.711 187.675C347.369 187.675 346.177 186.778 344.719 185.66L277.812 131.49V160.72L334.659 208.556C341.614 214.334 348.479 218.213 355.516 218.213C368.206 218.213 376.912 209.19 376.912 195.249V45.5566C376.912 31.616 368.206 22.4815 355.516 22.4815C348.408 22.4815 341.614 26.3959 334.659 32.2147L277.812 80.0861Z" fill="#149E53"/>
<path d="M103.339 178.613C106.674 178.613 109.304 177.444 111.606 175.212L170.11 117.433L189.223 96.8843L186.936 131.316V153.637C186.936 159.638 191.575 164.433 197.863 164.433C204.225 164.433 209.314 159.894 209.314 153.673V75.9167C209.314 66.9848 204.583 62.2195 195.576 62.2195H116.853C110.556 62.2195 105.87 67.3429 105.87 73.7461C105.87 80.0685 110.777 84.5974 116.924 84.5974H140.222L175.011 82.31L154.06 101.312L95.5203 159.121C92.9207 161.539 91.7471 164.386 91.7471 167.786C91.7471 174.003 96.7244 178.613 103.339 178.613Z" fill="#149E53"/>
</svg>
