<svg width="89" height="89" viewBox="0 0 89 89" fill="none" xmlns="http://www.w3.org/2000/svg">
<path d="M78.0862 17.28C77.7679 17.5187 77.5575 17.8741 77.5013 18.2679C77.445 18.6617 77.5475 19.0618 77.7862 19.38C81.4037 24.1978 83.9147 29.7537 85.1406 35.6523C86.3665 41.551 86.277 47.6474 84.8786 53.5075C83.4802 59.3676 80.8072 64.8475 77.0499 69.557C73.2926 74.2665 68.5433 78.0899 63.1402 80.755C65.9502 77.323 67.7277 73.1636 68.2659 68.7608C68.8041 64.358 68.081 59.8928 66.1805 55.885C64.28 51.8772 61.2805 48.4914 57.5308 46.1219C53.7812 43.7523 49.4358 42.4963 45.0002 42.5C40.4793 42.5004 36.0859 41.0017 32.5078 38.2383C28.9297 35.475 26.369 31.6032 25.2266 27.229C24.0841 22.8549 24.4245 18.2253 26.1943 14.0652C27.9641 9.90516 31.0635 6.44941 35.0072 4.23904C41.4267 2.62553 48.1415 2.59029 54.5777 4.13633C61.0138 5.68237 66.9799 8.76372 71.9662 13.117C72.1137 13.2516 72.2867 13.3554 72.4749 13.4223C72.663 13.4891 72.8627 13.5177 73.0621 13.5064C73.2614 13.4951 73.4566 13.4441 73.636 13.3564C73.8154 13.2686 73.9755 13.146 74.1068 12.9956C74.2382 12.8451 74.3382 12.67 74.401 12.4804C74.4638 12.2909 74.4881 12.0906 74.4725 11.8915C74.4569 11.6925 74.4016 11.4985 74.3101 11.321C74.2185 11.1435 74.0924 10.9861 73.9392 10.858C68.5896 6.18642 62.1885 2.8795 55.2828 1.21992C48.3772 -0.439663 41.1724 -0.402567 34.2842 1.32804C34.1969 1.33963 34.1108 1.35938 34.0272 1.38704C28.4289 2.81949 23.1676 5.34058 18.5437 8.80636C13.9198 12.2721 10.0238 16.6147 7.07811 21.5862C1.12908 31.6265 -0.587791 43.6189 2.30519 54.925C5.19817 66.2312 12.464 75.9251 22.5043 81.8741C32.5447 87.8232 44.537 89.54 55.8432 86.647C55.8672 86.641 55.8902 86.637 55.9132 86.63C65.3722 84.1947 73.7543 78.6864 79.7431 70.9703C85.7318 63.2542 88.988 53.7675 89.0002 44C89.0284 34.4662 85.9325 25.1856 80.1862 17.578C79.9472 17.2601 79.5917 17.0501 79.1979 16.9942C78.8041 16.9383 78.4042 17.0411 78.0862 17.28ZM4.00019 44C4.00755 36.3523 6.15153 28.8588 10.1903 22.3645C14.2291 15.8702 20.0021 10.6335 26.8582 7.24504C24.049 10.6774 22.2721 14.8369 21.7344 19.2396C21.1967 23.6423 21.9202 28.1072 23.8207 32.1148C25.7213 36.1224 28.7208 39.508 32.4702 41.8776C36.2196 44.2472 40.5648 45.5034 45.0002 45.5C49.523 45.499 53.9183 46.9985 57.4973 49.7636C61.0764 52.5287 63.6368 56.4032 64.7775 60.7798C65.9182 65.1563 65.5745 69.7877 63.8004 73.948C62.0264 78.1083 58.9221 81.5624 54.9742 83.769C48.9281 85.2854 42.6159 85.4032 36.5174 84.1136C30.4189 82.8239 24.6948 80.1607 19.7802 76.3265C14.8657 72.4922 10.89 67.5878 8.15565 61.9863C5.42126 56.3847 4.00009 50.2334 4.00019 44Z" fill="#C1752C"/>
<path d="M37.7334 22.0821C37.7334 23.5193 38.1596 24.9243 38.9581 26.1194C39.7566 27.3144 40.8916 28.2459 42.2194 28.7959C43.5473 29.3459 45.0085 29.4898 46.4181 29.2094C47.8278 28.929 49.1226 28.2369 50.1389 27.2206C51.1553 26.2043 51.8474 24.9094 52.1278 23.4998C52.4082 22.0901 52.2643 20.629 51.7142 19.3011C51.1642 17.9732 50.2328 16.8383 49.0377 16.0398C47.8427 15.2413 46.4377 14.8151 45.0004 14.8151C43.0737 14.8172 41.2266 15.5835 39.8642 16.9459C38.5018 18.3082 37.7355 20.1554 37.7334 22.0821ZM49.2674 22.0821C49.2674 22.926 49.0171 23.751 48.5483 24.4527C48.0794 25.1544 47.413 25.7013 46.6333 26.0243C45.8536 26.3472 44.9957 26.4317 44.1679 26.2671C43.3402 26.1024 42.5799 25.696 41.9832 25.0993C41.3864 24.5025 40.98 23.7422 40.8154 22.9145C40.6507 22.0868 40.7352 21.2288 41.0582 20.4492C41.3812 19.6695 41.9281 19.003 42.6298 18.5342C43.3315 18.0653 44.1565 17.8151 45.0004 17.8151C46.1318 17.8161 47.2165 18.266 48.0165 19.066C48.8164 19.866 49.2663 20.9507 49.2674 22.0821Z" fill="#C1752C"/>
<path d="M45.0004 58.652C43.5631 58.652 42.158 59.0782 40.963 59.8768C39.7679 60.6753 38.8365 61.8103 38.2865 63.1382C37.7365 64.4662 37.5926 65.9274 37.8731 67.3371C38.1536 68.7468 38.8458 70.0416 39.8622 71.0579C40.8786 72.0741 42.1736 72.7662 43.5833 73.0465C44.993 73.3267 46.4542 73.1827 47.7821 72.6325C49.1099 72.0823 50.2448 71.1508 51.0432 69.9556C51.8416 68.7604 52.2676 67.3553 52.2674 65.918C52.265 63.9915 51.4986 62.1446 50.1363 60.7824C48.7739 59.4203 46.9269 58.6541 45.0004 58.652ZM45.0004 70.185C44.1565 70.185 43.3315 69.9347 42.6298 69.4659C41.9281 68.997 41.3812 68.3306 41.0582 67.5509C40.7352 66.7712 40.6507 65.9132 40.8154 65.0855C40.98 64.2578 41.3864 63.4975 41.9832 62.9007C42.5799 62.304 43.3402 61.8976 44.168 61.733C44.9957 61.5683 45.8536 61.6528 46.6333 61.9758C47.413 62.2987 48.0794 62.8457 48.5483 63.5474C49.0171 64.2491 49.2674 65.074 49.2674 65.918C49.2661 67.0492 48.8161 68.1338 48.0162 68.9337C47.2162 69.7337 46.1317 70.1837 45.0004 70.185Z" fill="#C1752C"/>
</svg>
